<svg class="animated" id="freepik_stories-insurance" xmlns="http://www.w3.org/2000/svg" viewBox="0 0 500 500" version="1.1" xmlns:xlink="http://www.w3.org/1999/xlink" xmlns:svgjs="http://svgjs.com/svgjs"><style>svg#freepik_stories-insurance:not(.animated) .animable {opacity: 0;}svg#freepik_stories-insurance.animated #freepik--Shield--inject-4 {animation: 1.5s Infinite  linear heartbeat;animation-delay: 0s;}            @keyframes heartbeat {                0% {                    transform: scale(1);                }                10% {                    transform: scale(1.1);                }                30% {                    transform: scale(1);                }                40% {                    transform: scale(1);                }                50% {                    transform: scale(1.1);                }                60% {                    transform: scale(1);                }                100% {                    transform: scale(1);                }            }        </style><g id="freepik--Device--inject-4" class="animable" style="transform-origin: 235.755px 287.34px;"><rect x="108.23" y="104.33" width="255.05" height="366.02" rx="11.55" style="fill: rgb(38, 50, 56); transform-origin: 235.755px 287.34px;" id="el37gmpbmkae8" class="animable"></rect><rect x="116.15" y="130.44" width="238.96" height="305.67" style="fill: rgb(255, 255, 255); transform-origin: 235.63px 283.275px;" id="el6q4exfsefae" class="animable"></rect><path d="M245.54,452a9.79,9.79,0,1,1-9.78-9.79A9.78,9.78,0,0,1,245.54,452Z" style="fill: rgb(69, 90, 100); transform-origin: 235.75px 452px;" id="elzhxojrjbttp" class="animable"></path><rect x="197.35" y="114.87" width="76.82" height="4.04" rx="1.22" style="fill: rgb(69, 90, 100); transform-origin: 235.76px 116.89px;" id="eliz000z8jdgb" class="animable"></rect><rect x="142.92" y="154.32" width="190.37" height="32.14" style="fill: rgb(94, 134, 255); transform-origin: 238.105px 170.39px;" id="elcgxq1t7dx28" class="animable"></rect><path d="M201.09,165.38h1.44v10.1h-1.44Z" style="fill: rgb(255, 255, 255); transform-origin: 201.81px 170.43px;" id="eln3o8diprlzg" class="animable"></path><path d="M214.25,165.38v10.1h-1.18L207,168v7.53h-1.44v-10.1h1.18l6.07,7.53v-7.53Z" style="fill: rgb(255, 255, 255); transform-origin: 209.905px 170.455px;" id="elzok9he2dv5f" class="animable"></path><path d="M216.36,174.33l.53-1.13a5.2,5.2,0,0,0,3.34,1.17c1.74,0,2.49-.68,2.49-1.56,0-2.47-6.12-.91-6.12-4.66,0-1.56,1.22-2.89,3.87-2.89a5.92,5.92,0,0,1,3.25.9l-.48,1.15a5.22,5.22,0,0,0-2.77-.82c-1.72,0-2.45.72-2.45,1.6,0,2.47,6.12.92,6.12,4.63,0,1.55-1.24,2.88-3.91,2.88A6,6,0,0,1,216.36,174.33Z" style="fill: rgb(255, 255, 255); transform-origin: 220.25px 170.431px;" id="eld0fvc5ge6qb" class="animable"></path><path d="M226.16,171.12v-5.74h1.44v5.68c0,2.24,1,3.25,2.85,3.25s2.85-1,2.85-3.25v-5.68h1.41v5.74c0,2.93-1.61,4.48-4.28,4.48S226.16,174.05,226.16,171.12Z" style="fill: rgb(255, 255, 255); transform-origin: 230.435px 170.49px;" id="el3f60kxvrkor" class="animable"></path><path d="M244.42,175.48l-2.18-3.1-.63,0h-2.5v3.07h-1.45v-10.1h4c2.62,0,4.21,1.32,4.21,3.52a3.19,3.19,0,0,1-2.22,3.19l2.39,3.39Zm0-6.58c0-1.44-1-2.27-2.82-2.27h-2.45v4.55h2.45C243.41,171.18,244.38,170.34,244.38,168.9Z" style="fill: rgb(255, 255, 255); transform-origin: 241.85px 170.415px;" id="elzu46jm0q9xb" class="animable"></path><path d="M254.6,173h-5.37l-1.12,2.53h-1.48l4.57-10.1h1.43l4.59,10.1h-1.51Zm-.51-1.15-2.18-5-2.18,5Z" style="fill: rgb(255, 255, 255); transform-origin: 251.925px 170.48px;" id="elx9jd2zj1qc9" class="animable"></path><path d="M267.41,165.38v10.1h-1.18L260.17,168v7.53h-1.44v-10.1h1.18l6.06,7.53v-7.53Z" style="fill: rgb(255, 255, 255); transform-origin: 263.07px 170.455px;" id="elr52fdeie6i" class="animable"></path><path d="M269.62,170.43a5.11,5.11,0,0,1,5.36-5.17,5,5,0,0,1,3.84,1.57l-.94.91a3.74,3.74,0,0,0-2.84-1.19,3.88,3.88,0,1,0,0,7.76,3.76,3.76,0,0,0,2.84-1.21l.94.91A5,5,0,0,1,275,175.6,5.11,5.11,0,0,1,269.62,170.43Z" style="fill: rgb(255, 255, 255); transform-origin: 274.22px 170.431px;" id="elqevj8mv35m8" class="animable"></path><path d="M288.22,174.22v1.26h-7.34v-10.1H288v1.25h-5.68v3.11h5.06V171h-5.06v3.26Z" style="fill: rgb(255, 255, 255); transform-origin: 284.55px 170.43px;" id="el70s4r8k00ab" class="animable"></path><path d="M338,228.79s0-.18,0-.54,0-.91,0-1.63c0-1.46,0-3.67-.05-6.69l.08.08c-23.67.11-102.09.18-195,.18h0l.26-.26v8.86l-.26-.26,138.15.11,41.61.08,11.31,0,2.94,0,1,0-1,0-2.91,0-11.25,0-41.55.08-138.34.11h-.26v-9.38h.27c92.93,0,171.35.08,195,.19H338v.07c0,3,0,5.26,0,6.73,0,.72,0,1.25,0,1.61S338,228.79,338,228.79Z" style="fill: rgb(38, 50, 56); transform-origin: 240.385px 224.22px;" id="elam9l4cn46dr" class="animable"></path><path d="M178.35,207.91c0,.15-8.57.26-19.14.26s-19.14-.11-19.14-.26,8.57-.26,19.14-.26S178.35,207.77,178.35,207.91Z" style="fill: rgb(38, 50, 56); transform-origin: 159.21px 207.91px;" id="el2hmnapqkfmj" class="animable"></path><path d="M335.09,364.23s0-.19,0-.55,0-.9,0-1.63c0-1.46,0-3.66,0-6.68l.07.07c-23.67.11-102.08.19-195,.19h0l.26-.26v8.86l-.26-.26,138.14.1,41.62.08,11.3,0,2.95,0c.66,0,1,0,1,0h-1l-2.92,0-11.24,0-41.55.08-138.34.11h-.26v-9.38h.27c92.93,0,171.34.08,195,.19h.08v.07c0,3,0,5.25-.05,6.73,0,.71,0,1.24,0,1.61S335.09,364.23,335.09,364.23Z" style="fill: rgb(38, 50, 56); transform-origin: 237.535px 359.65px;" id="el97i3l6hlt4p" class="animable"></path><path d="M180.07,346.46c0,.15-8.57.26-19.14.26s-19.14-.11-19.14-.26,8.57-.26,19.14-.26S180.07,346.32,180.07,346.46Z" style="fill: rgb(38, 50, 56); transform-origin: 160.93px 346.46px;" id="elx05lwn5khbf" class="animable"></path><path d="M335.09,262.64s0-.18,0-.54,0-.9,0-1.63c0-1.46,0-3.66,0-6.68l.07.07c-23.67.11-102.08.19-195,.19h0l.26-.26v8.85l-.26-.26,138.14.11,41.62.08,11.3,0,2.95,0h1s-.32,0-1,0l-2.92,0-11.24,0-41.55.08-138.34.1h-.26v-9.37h.27c92.93,0,171.34.08,195,.19h.08v.07c0,3,0,5.25-.05,6.72,0,.72,0,1.25,0,1.62S335.09,262.64,335.09,262.64Z" style="fill: rgb(38, 50, 56); transform-origin: 237.535px 258.065px;" id="el4dycfdrgzak" class="animable"></path><path d="M178.35,244.88c0,.15-8.57.26-19.14.26s-19.14-.11-19.14-.26,8.57-.26,19.14-.26S178.35,244.74,178.35,244.88Z" style="fill: rgb(38, 50, 56); transform-origin: 159.21px 244.88px;" id="eln6amdjnbf9" class="animable"></path><path d="M223,296.5s0-.21,0-.59,0-1,0-1.71c0-1.51,0-3.71-.06-6.56l.11.11c-14.41.09-46.15.15-82.94.15h0c.12-.11-.26.26.26-.26h0v8.83l-.26-.26,58.86.11,17.61.08,4.78,0,1.25,0,.44,0-.41,0h-1.21l-4.72,0-17.56.08-59,.11h-.26v-9.09h0l.26-.26h0c36.79,0,68.53.06,82.94.15h.11v.11c0,2.88-.05,5.1-.07,6.62,0,.73,0,1.29,0,1.69S223,296.5,223,296.5Z" style="fill: rgb(38, 50, 56); transform-origin: 181.545px 291.915px;" id="el1bcykevflyq" class="animable"></path><path d="M178.35,278.74c0,.14-8.57.26-19.14.26s-19.14-.12-19.14-.26,8.57-.26,19.14-.26S178.35,278.59,178.35,278.74Z" style="fill: rgb(38, 50, 56); transform-origin: 159.21px 278.74px;" id="el6ovrem6o2rp" class="animable"></path><path d="M153.87,328.69a4.62,4.62,0,0,1,0-.66c0-.48,0-1.08-.05-1.8,0-1.61-.07-3.78-.11-6.39l.2.2-13.8.06c-.06,0,.49-.5.26-.26h0v2.31c0,.77,0,1.52,0,2.26,0,1.48,0,2.91,0,4.27l-.24-.24c4,0,7.42.07,9.87.12l2.87.07a9.68,9.68,0,0,1,1.06.05,5.39,5.39,0,0,1-1,.06l-2.82.06c-2.43.05-5.91.1-10,.12h-.24v-.24c0-1.36,0-2.79,0-4.27v-4.57h0l.26-.26,13.8.05h.21v.21c0,2.75-.07,5-.11,6.52,0,.7,0,1.28-.05,1.75A2.23,2.23,0,0,1,153.87,328.69Z" style="fill: rgb(38, 50, 56); transform-origin: 147.005px 324.25px;" id="el8onwnftr56j" class="animable"></path><path d="M172.1,328.69a4.62,4.62,0,0,1,0-.66q0-.72-.06-1.8c0-1.61-.06-3.78-.11-6.39l.21.2-13.8.06c-.06,0,.49-.5.26-.26h0V321c0,.39,0,.77,0,1.15v2.26c0,1.48,0,2.91,0,4.27l-.24-.24c4,0,7.42.07,9.86.12l2.87.07a9.78,9.78,0,0,1,1.07.05,5.53,5.53,0,0,1-1,.06l-2.82.06c-2.43.05-5.91.1-10,.12h-.24v-.24c0-1.36,0-2.79,0-4.27v-4.57h0c-.24.23.31-.32.26-.26l13.8.05h.21v.21c0,2.75-.07,5-.11,6.52,0,.7,0,1.28,0,1.75A2.23,2.23,0,0,1,172.1,328.69Z" style="fill: rgb(38, 50, 56); transform-origin: 165.205px 324.248px;" id="el1vc18ydvof1" class="animable"></path><path d="M190.33,328.69a3.71,3.71,0,0,1-.05-.66c0-.48,0-1.08-.05-1.8,0-1.61-.06-3.78-.11-6.39l.21.2-13.81.06.26-.26h0v4.57c0,1.48,0,2.91,0,4.27l-.24-.24c4,0,7.43.07,9.87.12l2.87.07a10,10,0,0,1,1.07.05,5.6,5.6,0,0,1-1,.06l-2.81.06c-2.43.05-5.92.1-10,.12h-.24v-.24c0-1.36,0-2.79,0-4.27,0-.74,0-1.49,0-2.26v-2.31h0l.26-.26,13.81.05h.21v.21c0,2.75-.07,5-.1,6.52,0,.7,0,1.28-.06,1.75A2.77,2.77,0,0,1,190.33,328.69Z" style="fill: rgb(38, 50, 56); transform-origin: 183.44px 324.25px;" id="elbhx0wsdpj3m" class="animable"></path><path d="M208.55,328.69s0-.24,0-.66,0-1.08,0-1.8c0-1.61-.07-3.78-.11-6.39l.2.2-13.8.06c-.06,0,.49-.5.26-.26h0v2.31c0,.77,0,1.52,0,2.26,0,1.48,0,2.91,0,4.27l-.24-.24c4,0,7.42.07,9.87.12l2.87.07a9.46,9.46,0,0,1,1.06.05,5.39,5.39,0,0,1-1,.06l-2.82.06c-2.42.05-5.91.1-10,.12h-.24v-.24c0-1.36,0-2.79,0-4.27v-4.57h0l.26-.26,13.8.05h.21v.21c0,2.75-.07,5-.11,6.52,0,.7,0,1.28-.05,1.75A2.23,2.23,0,0,1,208.55,328.69Z" style="fill: rgb(38, 50, 56); transform-origin: 201.735px 324.25px;" id="elasjqrjgcwdg" class="animable"></path><path d="M226.78,328.69a4.62,4.62,0,0,1,0-.66c0-.48,0-1.08-.06-1.8,0-1.61-.06-3.78-.1-6.39l.2.2-13.8.06c-.06,0,.49-.5.26-.26h0v2.31c0,.77,0,1.52,0,2.26,0,1.48,0,2.91,0,4.27l-.24-.24c4,0,7.42.07,9.86.12l2.87.07a9.78,9.78,0,0,1,1.07.05,5.53,5.53,0,0,1-1,.06l-2.82.06c-2.43.05-5.91.1-10,.12h-.24v-.24c0-1.36,0-2.79,0-4.27v-4.57h0l.26-.26,13.8.05H227v.21c0,2.75-.07,5-.11,6.52,0,.7,0,1.28,0,1.75A2.23,2.23,0,0,1,226.78,328.69Z" style="fill: rgb(38, 50, 56); transform-origin: 219.89px 324.25px;" id="elfh0cab7oukh" class="animable"></path><path d="M245,328.69a3.71,3.71,0,0,1,0-.66c0-.48,0-1.08-.05-1.8,0-1.61-.06-3.78-.11-6.39l.21.2-13.81.06.26-.26h0v4.57c0,1.48,0,2.91,0,4.27l-.24-.24c4,0,7.43.07,9.87.12l2.87.07a9.78,9.78,0,0,1,1.07.05,5.6,5.6,0,0,1-1,.06l-2.81.06c-2.43.05-5.92.1-10,.12H231v-.24c0-1.36,0-2.79,0-4.27,0-.74,0-1.49,0-2.26v-2.31h0l.26-.26,13.81.05h.21v.21c0,2.75-.07,5-.1,6.52,0,.7,0,1.28-.06,1.75A2.77,2.77,0,0,1,245,328.69Z" style="fill: rgb(38, 50, 56); transform-origin: 238.14px 324.25px;" id="elxx8wap85fwj" class="animable"></path><path d="M263.24,328.69a3.71,3.71,0,0,1-.05-.66c0-.48,0-1.08-.05-1.8,0-1.61-.07-3.78-.11-6.39l.21.2-13.81.06c-.06,0,.49-.5.26-.26h0v4.57c0,1.48,0,2.91,0,4.27l-.24-.24c4,0,7.42.07,9.87.12l2.87.07a10,10,0,0,1,1.07.05,5.74,5.74,0,0,1-1,.06l-2.81.06c-2.43.05-5.92.1-10,.12h-.24v-.24c0-1.36,0-2.79,0-4.27,0-.74,0-1.49,0-2.26v-2.31h0l.26-.26,13.81.05h.2v.21c0,2.75-.07,5-.11,6.52,0,.7,0,1.28-.05,1.75A2.77,2.77,0,0,1,263.24,328.69Z" style="fill: rgb(38, 50, 56); transform-origin: 256.345px 324.25px;" id="elp60o6sx3l6j" class="animable"></path><path d="M281.46,328.69a4.62,4.62,0,0,1,0-.66c0-.48,0-1.08-.05-1.8,0-1.61-.07-3.78-.11-6.39l.2.2-13.8.06c-.06,0,.49-.5.26-.26h0v2.31c0,.77,0,1.52,0,2.26,0,1.48,0,2.91,0,4.27l-.24-.24c4,0,7.42.07,9.87.12l2.87.07a9.68,9.68,0,0,1,1.06.05,5.53,5.53,0,0,1-1,.06l-2.82.06c-2.43.05-5.91.1-10,.12h-.24v-.24c0-1.36,0-2.79,0-4.27v-4.57h0c-.24.23.31-.32.26-.26l13.8.05h.21v.21c0,2.75-.07,5-.11,6.52,0,.7,0,1.28-.05,1.75A2.23,2.23,0,0,1,281.46,328.69Z" style="fill: rgb(38, 50, 56); transform-origin: 274.565px 324.248px;" id="elqjuhzkrg3q" class="animable"></path><path d="M299.69,328.69a5.46,5.46,0,0,1-.05-.66c0-.48,0-1.08-.05-1.8,0-1.61-.06-3.78-.11-6.39l.21.2-13.8.06c-.06,0,.49-.5.25-.26h0v4.57c0,1.48,0,2.91,0,4.27l-.24-.24c4,0,7.43.07,9.87.12l2.87.07a9.78,9.78,0,0,1,1.07.05,5.53,5.53,0,0,1-1,.06l-2.82.06c-2.43.05-5.92.1-10,.12h-.23v-.24c0-1.36,0-2.79,0-4.27v-2.26c0-.38,0-.76,0-1.15v-1.16h0c-.23.23.32-.32.27-.26l13.8.05h.21v.21c0,2.75-.08,5-.11,6.52,0,.7,0,1.28-.06,1.75A2.77,2.77,0,0,1,299.69,328.69Z" style="fill: rgb(38, 50, 56); transform-origin: 292.772px 324.248px;" id="eltq8hkespbx" class="animable"></path><path d="M317.92,328.69a3.71,3.71,0,0,1-.05-.66c0-.48,0-1.08-.05-1.8,0-1.61-.06-3.78-.11-6.39l.21.2-13.81.06c-.06,0,.49-.5.26-.26h0v4.57c0,1.48,0,2.91,0,4.27l-.24-.24c4,0,7.42.07,9.87.12l2.87.07a10,10,0,0,1,1.07.05,5.6,5.6,0,0,1-1,.06l-2.81.06c-2.43.05-5.92.1-10,.12h-.24v-.24c0-1.36,0-2.79,0-4.27,0-.74,0-1.49,0-2.26v-2.31h0l.26-.26,13.81.05h.2v.21c0,2.75-.07,5-.11,6.52,0,.7,0,1.28-.05,1.75A2.77,2.77,0,0,1,317.92,328.69Z" style="fill: rgb(38, 50, 56); transform-origin: 311.025px 324.25px;" id="elfvdc7o6yshm" class="animable"></path><path d="M336.14,328.69a4.62,4.62,0,0,1,0-.66c0-.48,0-1.08-.05-1.8,0-1.61-.07-3.78-.11-6.39l.2.2-13.8.06c-.06,0,.49-.5.26-.26h0v2.31c0,.77,0,1.52,0,2.26,0,1.48,0,2.91,0,4.27l-.24-.24c4,0,7.42.07,9.87.12l2.87.07a9.68,9.68,0,0,1,1.06.05,5.39,5.39,0,0,1-1,.06l-2.82.06c-2.43.05-5.91.1-10,.12h-.24v-.24c0-1.36,0-2.79,0-4.27v-4.57h0l.26-.26,13.8.05h.21v.21c0,2.75-.07,5-.11,6.52,0,.7,0,1.28-.05,1.75A2.23,2.23,0,0,1,336.14,328.69Z" style="fill: rgb(38, 50, 56); transform-origin: 329.275px 324.25px;" id="elcmtgm73cvxa" class="animable"></path><path d="M180.07,310.93c0,.15-8.57.26-19.14.26s-19.14-.11-19.14-.26,8.57-.26,19.14-.26S180.07,310.79,180.07,310.93Z" style="fill: rgb(38, 50, 56); transform-origin: 160.93px 310.93px;" id="elwc5suifqjo" class="animable"></path><path d="M333.71,296.5s0-.21,0-.59,0-1,0-1.71c0-1.51,0-3.71-.06-6.56l.11.11c-14.41.09-46.14.15-82.93.15h0l.26-.26h0v8.83l-.26-.26,58.86.11,17.61.08,4.79,0,1.25,0,.43,0-.4,0h-1.22l-4.72,0-17.55.08-59,.11h-.25v-.26c0-1.41,0-2.87,0-4.35v-4.48h0l.27-.26h0c36.79,0,68.52.06,82.93.15h.11v.11c0,2.88-.05,5.1-.06,6.62,0,.73,0,1.29,0,1.69S333.71,296.5,333.71,296.5Z" style="fill: rgb(38, 50, 56); transform-origin: 292.285px 291.915px;" id="elfvn5chgwzz4" class="animable"></path><path d="M290.78,278.74c0,.14-8.57.26-19.14.26s-19.14-.12-19.14-.26,8.57-.26,19.14-.26S290.78,278.59,290.78,278.74Z" style="fill: rgb(38, 50, 56); transform-origin: 271.64px 278.74px;" id="elqb6eybe8lan" class="animable"></path><path d="M272.65,410.33h-74A12.67,12.67,0,0,1,186,397.66h0A12.67,12.67,0,0,1,198.64,385h74a12.67,12.67,0,0,1,12.67,12.67h0A12.67,12.67,0,0,1,272.65,410.33Z" style="fill: rgb(94, 134, 255); transform-origin: 235.655px 397.665px;" id="el0bl23as1ggzj" class="animable"></path><rect x="172.31" y="164.74" width="2.5" height="11.2" style="fill: rgb(255, 255, 255); transform-origin: 173.56px 170.34px;" id="elhfvxr61dpm" class="animable"></rect><g id="eljkrkrnp88q"><rect x="172.31" y="164.74" width="2.5" height="11.2" style="fill: rgb(255, 255, 255); transform-origin: 173.56px 170.34px; transform: rotate(-90deg);" class="animable"></rect></g><path d="M182.87,170.37s0-.05,0-.15l0-.45,0-.32a3.1,3.1,0,0,0-.06-.39,5.78,5.78,0,0,0-.19-1,9.37,9.37,0,0,0-7.3-6.83,9.51,9.51,0,0,0-6.07.94,9.06,9.06,0,0,0-1.13.73,9.88,9.88,0,0,0-1,.89,11.67,11.67,0,0,0-.91,1.07,9.08,9.08,0,0,0-1.32,2.55,9.27,9.27,0,0,0,0,5.83,8.82,8.82,0,0,0,1.32,2.55,10.47,10.47,0,0,0,.91,1.07,8.83,8.83,0,0,0,1,.89,9.06,9.06,0,0,0,1.13.73,8.08,8.08,0,0,0,1.21.53,9.26,9.26,0,0,0,11.12-3.94,9.12,9.12,0,0,0,1-2.47,6,6,0,0,0,.19-1,3.1,3.1,0,0,0,.06-.39l0-.33,0-.44c0-.1,0-.15,0-.15v.15c0,.11,0,.26,0,.44l0,.33c0,.12,0,.25-.05.4a7.28,7.28,0,0,1-.18,1,9,9,0,0,1-1,2.51,9.36,9.36,0,0,1-6.32,4.45,9.56,9.56,0,0,1-5-.39,12.09,12.09,0,0,1-1.23-.54,11.94,11.94,0,0,1-1.16-.74,13.19,13.19,0,0,1-1.07-.91,10.61,10.61,0,0,1-.92-1.09,8.81,8.81,0,0,1-1.35-2.6,9.31,9.31,0,0,1,0-6,8.81,8.81,0,0,1,1.35-2.6,10.81,10.81,0,0,1,.92-1.09,10.11,10.11,0,0,1,1.07-.91,8.83,8.83,0,0,1,2.39-1.28,9.34,9.34,0,0,1,8.91,1.38,9.27,9.27,0,0,1,2.37,2.68,9,9,0,0,1,1,2.51,7.28,7.28,0,0,1,.18,1c0,.14,0,.27.05.39l0,.33c0,.19,0,.34,0,.45Z" style="fill: rgb(255, 255, 255); transform-origin: 173.462px 170.296px;" id="elrkpwq5l639s" class="animable"></path><path d="M225.77,399.79h-3.4l-.65,1.57H220l3.26-7.33h1.68l3.27,7.33h-1.78Zm-.53-1.29-1.16-2.8-1.16,2.8Z" style="fill: rgb(255, 255, 255); transform-origin: 224.105px 397.695px;" id="el9sx0vlc775m" class="animable"></path><path d="M228.4,397.69a4,4,0,0,1,7-2.49l-1.09,1a2.34,2.34,0,0,0-1.84-.86,2.35,2.35,0,0,0,0,4.69,2.32,2.32,0,0,0,1.84-.87l1.09,1a4,4,0,0,1-7-2.49Z" style="fill: rgb(255, 255, 255); transform-origin: 231.9px 397.68px;" id="elwgnvck3n1e" class="animable"></path><path d="M235.91,397.69a3.77,3.77,0,0,1,4-3.78,3.82,3.82,0,0,1,3,1.29l-1.09,1a2.34,2.34,0,0,0-1.84-.86,2.35,2.35,0,1,0,0,4.69,2.32,2.32,0,0,0,1.84-.87l1.09,1a4,4,0,0,1-7-2.49Z" style="fill: rgb(255, 255, 255); transform-origin: 239.41px 397.71px;" id="elwf2azgvxabi" class="animable"></path><path d="M249.72,400v1.36H244V394h5.54v1.36h-3.85V397h3.4v1.32h-3.4V400Z" style="fill: rgb(255, 255, 255); transform-origin: 246.86px 397.68px;" id="el763basuvu44" class="animable"></path><path d="M257.42,396.69c0,1.63-1.22,2.65-3.18,2.65h-1.48v2h-1.69V394h3.17C256.2,394,257.42,395.05,257.42,396.69Zm-1.72,0c0-.81-.52-1.28-1.56-1.28h-1.38V398h1.38C255.18,398,255.7,397.49,255.7,396.69Z" style="fill: rgb(255, 255, 255); transform-origin: 254.245px 397.67px;" id="el0zopxgikwvh" class="animable"></path><path d="M259.94,395.41H257.6V394H264v1.38h-2.34v5.95h-1.7Z" style="fill: rgb(255, 255, 255); transform-origin: 260.8px 397.665px;" id="elmvtvc08jqn" class="animable"></path><polygon points="203.23 397.84 204.49 396.58 206.92 398.74 211.69 394.15 212.86 395.41 206.74 401.17 203.23 397.84" style="fill: rgb(255, 255, 255); transform-origin: 208.045px 397.66px;" id="eljmmc6q4f9j" class="animable"></polygon></g><g id="freepik--Floor--inject-4" class="animable" style="transform-origin: 247px 469.71px;"><path d="M465.31,469.71c0,.14-97.75.26-218.3.26s-218.32-.12-218.32-.26,97.73-.26,218.32-.26S465.31,469.56,465.31,469.71Z" style="fill: rgb(38, 50, 56); transform-origin: 247px 469.71px;" id="elguci4voinzk" class="animable"></path></g><g id="freepik--Character--inject-4" class="animable" style="transform-origin: 410.521px 306.556px;"><path d="M423.28,444.41l-1,16.68s16.61,6.65,16.72,9.75L406.56,470,407.1,444Z" style="fill: rgb(94, 134, 255); transform-origin: 422.78px 457.42px;" id="elx0y7jfsvnt" class="animable"></path><g id="eljkokgzb6k6k"><g style="opacity: 0.6; transform-origin: 412.552px 460.684px;" class="animable"><path d="M412.27,459.43a1.33,1.33,0,0,0-.95,1.49,1.27,1.27,0,0,0,1.46,1,1.39,1.39,0,0,0,1-1.58,1.32,1.32,0,0,0-1.63-.83" style="fill: rgb(255, 255, 255); transform-origin: 412.552px 460.684px;" id="eluybvzvjqsac" class="animable"></path></g></g><g id="el5rkpimb1fwg"><g style="opacity: 0.6; transform-origin: 422.769px 469.105px;" class="animable"><path d="M406.56,470l.16-2.62,31,1.77s1.43.67,1.24,1.68Z" style="fill: rgb(255, 255, 255); transform-origin: 422.769px 469.105px;" id="elk3h3f531kxe" class="animable"></path></g></g><path d="M422.79,460.94c0,.16-.8.21-1.6.7s-1.22,1.14-1.36,1.08.11-1,1.08-1.55S422.83,460.8,422.79,460.94Z" style="fill: rgb(38, 50, 56); transform-origin: 421.293px 461.76px;" id="elm9wvmh7tsr" class="animable"></path><path d="M426.15,462.43c0,.16-.66.41-1.21,1.07s-.73,1.36-.89,1.35-.23-.91.47-1.72S426.15,462.28,426.15,462.43Z" style="fill: rgb(38, 50, 56); transform-origin: 425.047px 463.606px;" id="elzoj2f2q78y" class="animable"></path><path d="M428,466.55c-.15,0-.35-.76.08-1.62s1.18-1.18,1.24-1.05-.4.59-.74,1.29S428.14,466.54,428,466.55Z" style="fill: rgb(38, 50, 56); transform-origin: 428.573px 465.201px;" id="ele6uibqclh2c" class="animable"></path><path d="M422.6,457.11c-.07.15-.79-.09-1.69-.05s-1.6.3-1.68.16.61-.68,1.67-.71S422.68,457,422.6,457.11Z" style="fill: rgb(38, 50, 56); transform-origin: 420.915px 456.885px;" id="eltwt6nyo0hfr" class="animable"></path><g id="el1eht5kcyl4f"><g style="opacity: 0.3; transform-origin: 415.025px 448.695px;" class="animable"><polygon points="423.08 447.71 422.9 450.69 406.97 450.14 407.03 446.7 423.08 447.71" id="eldwg82m55eug" class="animable" style="transform-origin: 415.025px 448.695px;"></polygon></g></g><path d="M422.74,453.74a2.94,2.94,0,0,1-1.62-.05,6.74,6.74,0,0,1-1.68-.56,6.52,6.52,0,0,1-.92-.52,1.83,1.83,0,0,1-.48-.39.7.7,0,0,1-.06-.85.9.9,0,0,1,.71-.34,2,2,0,0,1,.6.1,5.61,5.61,0,0,1,1,.37,5.89,5.89,0,0,1,1.48,1c.73.72,1,1.31.92,1.34s-.43-.45-1.18-1a6.14,6.14,0,0,0-1.43-.86,5.84,5.84,0,0,0-.92-.31c-.34-.1-.63-.11-.73,0s0,.08,0,.19a2,2,0,0,0,.36.28,7.66,7.66,0,0,0,.84.52,9.38,9.38,0,0,0,1.56.64A12,12,0,0,1,422.74,453.74Z" style="fill: rgb(38, 50, 56); transform-origin: 420.302px 452.436px;" id="el8n316rsr6fw" class="animable"></path><path d="M422.53,454a2.75,2.75,0,0,1-.39-1.58,5.41,5.41,0,0,1,.27-1.77,5,5,0,0,1,.44-1,1.32,1.32,0,0,1,1.06-.79.73.73,0,0,1,.66.47,2.11,2.11,0,0,1,.15.6,3.6,3.6,0,0,1,0,1.09,3.75,3.75,0,0,1-.74,1.66c-.65.82-1.32,1-1.33.94s.51-.37,1-1.17a3.75,3.75,0,0,0,.56-1.51,3.3,3.3,0,0,0,0-.94c0-.34-.16-.62-.29-.59s-.45.24-.59.52a5.67,5.67,0,0,0-.42.86,6,6,0,0,0-.36,1.62C422.47,453.35,422.62,453.94,422.53,454Z" style="fill: rgb(38, 50, 56); transform-origin: 423.448px 451.43px;" id="elr71otow3r5" class="animable"></path><path d="M430,342.8l-25.77,8.28c.31.23,4.78,29.19,4.78,29.19l-3.72,76.88,20.45.25,9.15-80.64Z" style="fill: rgb(38, 50, 56); transform-origin: 419.56px 400.1px;" id="elyeioduur3o" class="animable"></path><path d="M394,444.35l-.52,16.7s16.8,6.14,17,9.24l-32.43.15-.26-26.06Z" style="fill: rgb(94, 134, 255); transform-origin: 394.135px 457.395px;" id="eldoik6uavhdf" class="animable"></path><g id="elnfa4osevym"><g style="opacity: 0.6; transform-origin: 383.798px 460.913px;" class="animable"><path d="M383.48,459.7a1.33,1.33,0,0,0-.91,1.51,1.28,1.28,0,0,0,1.5.92,1.4,1.4,0,0,0,.95-1.61,1.32,1.32,0,0,0-1.66-.78" style="fill: rgb(255, 255, 255); transform-origin: 383.798px 460.913px;" id="el0zfscog2hdj" class="animable"></path></g></g><g id="ela4zti7rswoe"><g style="opacity: 0.6; transform-origin: 394.32px 469.13px;" class="animable"><path d="M378.1,470.44l.08-2.62,31.06.83s1.44.62,1.29,1.64Z" style="fill: rgb(255, 255, 255); transform-origin: 394.32px 469.13px;" id="eletaod4mf0dm" class="animable"></path></g></g><path d="M394,460.89c0,.15-.8.23-1.57.74s-1.19,1.18-1.34,1.12.09-1,1-1.58S394.07,460.74,394,460.89Z" style="fill: rgb(38, 50, 56); transform-origin: 392.526px 461.754px;" id="elcuwlc59tkl" class="animable"></path><path d="M397.45,462.28c0,.15-.65.42-1.18,1.09s-.69,1.39-.85,1.38-.26-.9.42-1.72S397.44,462.13,397.45,462.28Z" style="fill: rgb(38, 50, 56); transform-origin: 396.376px 463.484px;" id="el3ciqliv7bdp" class="animable"></path><path d="M399.4,466.34c-.14,0-.37-.76,0-1.63s1.15-1.21,1.21-1.08-.38.59-.7,1.31S399.56,466.32,399.4,466.34Z" style="fill: rgb(38, 50, 56); transform-origin: 399.908px 464.972px;" id="el0zfdfxrjh18a" class="animable"></path><path d="M393.74,457.07c-.07.14-.8-.07-1.69,0s-1.59.35-1.68.22.59-.71,1.64-.77S393.81,456.94,393.74,457.07Z" style="fill: rgb(38, 50, 56); transform-origin: 392.053px 456.919px;" id="elpkz3563697h" class="animable"></path><g id="eldsuj0q9u2xc"><g style="opacity: 0.3; transform-origin: 385.895px 448.88px;" class="animable"><polygon points="393.93 447.66 393.84 450.63 377.9 450.57 377.86 447.13 393.93 447.66" id="elc18hz41mwr" class="animable" style="transform-origin: 385.895px 448.88px;"></polygon></g></g><path d="M393.78,453.69a2.93,2.93,0,0,1-1.62,0,7.17,7.17,0,0,1-1.71-.51,9.31,9.31,0,0,1-.93-.49,2,2,0,0,1-.49-.38.68.68,0,0,1-.08-.84.89.89,0,0,1,.69-.37,2.2,2.2,0,0,1,.61.08,6,6,0,0,1,1,.35,5.7,5.7,0,0,1,1.51,1c.75.69,1,1.28,1,1.31s-.44-.44-1.21-1a6.74,6.74,0,0,0-1.45-.81,6.45,6.45,0,0,0-.94-.28c-.34-.09-.63-.09-.72.06s0,.09,0,.19a1.4,1.4,0,0,0,.36.27,6.76,6.76,0,0,0,.86.49,8.17,8.17,0,0,0,1.57.59A14,14,0,0,1,393.78,453.69Z" style="fill: rgb(38, 50, 56); transform-origin: 391.31px 452.471px;" id="el2vbqv2flhd" class="animable"></path><path d="M393.57,453.92a2.6,2.6,0,0,1-.43-1.56,5.31,5.31,0,0,1,.21-1.78,5.19,5.19,0,0,1,.41-1,1.37,1.37,0,0,1,1-.83.77.77,0,0,1,.68.45,2.19,2.19,0,0,1,.17.6,3.63,3.63,0,0,1,0,1.09,3.69,3.69,0,0,1-.69,1.68c-.63.85-1.29,1-1.3,1a10.42,10.42,0,0,0,1-1.19,3.59,3.59,0,0,0,.5-1.53,3,3,0,0,0,0-.94c-.05-.34-.18-.62-.31-.59s-.44.26-.57.54a5.64,5.64,0,0,0-.39.88,5.53,5.53,0,0,0-.31,1.62C393.49,453.31,393.66,453.9,393.57,453.92Z" style="fill: rgb(38, 50, 56); transform-origin: 394.392px 451.335px;" id="elkwln9jv2h" class="animable"></path><path d="M373.29,346.9c0,5.82,2.3,113.74,2.3,113.74L395,458.91l4-66.32,2.09-5.78,2.43-35.73Z" style="fill: rgb(38, 50, 56); transform-origin: 388.405px 403.77px;" id="elo6exqs5oxdo" class="animable"></path><path d="M414.42,207c.26.35,15.42,24.41,15.42,24.41l17.05-17.84,8.72,12.59s-18.23,25.73-20.91,26.66-11.3-.53-11.3-.53l-12-15.89Z" style="fill: rgb(235, 235, 235); transform-origin: 433.505px 230.065px;" id="eloxnatsefprq" class="animable"></path><path d="M430,236.91a6.89,6.89,0,0,1-.32-2.77,8.24,8.24,0,0,1,.19-2.78,7,7,0,0,1,.33,2.77A8.44,8.44,0,0,1,430,236.91Z" style="fill: rgb(38, 50, 56); transform-origin: 429.937px 234.135px;" id="elaiqc2cuxnwa" class="animable"></path><path d="M375.87,189l-2.62,6.47s-13.45,11.35-14.67,13.1,9.6,58.33,9.6,58.33-.7,83.13,0,83.13,10,3,29,1.57,22.53-3.32,22.53-3.32l-5.93-73.52-9.09-49.43-15.59-20.08Z" style="fill: rgb(235, 235, 235); transform-origin: 389.097px 270.493px;" id="eljdzlrcgo49d" class="animable"></path><path d="M406.51,217.07s-2-9.59-1.83-9.89-4.48-11.63-4.48-11.63-1.56-5.19-1.56-5.17-21.19-3.58-21.19-3.58l-1,3.2,28.26,35.71,2.9,15.33,3-4.18Z" style="fill: rgb(94, 134, 255); transform-origin: 393.53px 213.92px;" id="ella5ayqv8jh" class="animable"></path><path d="M425.42,289.25l-4.6-55.31-3.77-21.59a23.46,23.46,0,0,0-3.39-8.64l-11-6.37a48.42,48.42,0,0,1-3.15-4.21l5.21,13.31,1.83,10.63,1.13,24.39h0l6,32.74,5.88,72,12.78-2.5Z" style="fill: rgb(235, 235, 235); transform-origin: 415.925px 269.665px;" id="elmv8jp2lmrhs" class="animable"></path><polygon points="408.1 224.81 410.57 206.66 402.62 197.34 399.47 193.13 404.36 207.18 408.1 224.81" style="fill: rgb(235, 235, 235); transform-origin: 405.02px 208.97px;" id="elpkrsf2ib4m" class="animable"></polygon><polygon points="395.54 258.68 414.75 231.36 448.18 241.47 422.89 274.19 391.49 263.98 395.54 258.68" style="fill: rgb(94, 134, 255); transform-origin: 419.835px 252.775px;" id="elpz59gtbb70s" class="animable"></polygon><path d="M438.42,240.21a.83.83,0,1,1-.83-.83A.83.83,0,0,1,438.42,240.21Z" style="fill: rgb(38, 50, 56); transform-origin: 437.59px 240.21px;" id="elid6dz2irsg" class="animable"></path><path d="M425.05,236.48a.83.83,0,1,1-.82-.83A.83.83,0,0,1,425.05,236.48Z" style="fill: rgb(38, 50, 56); transform-origin: 424.22px 236.48px;" id="elqwj91ejuysi" class="animable"></path><path d="M409.38,213.79c-.05,0,.36,1.78.93,4a37.61,37.61,0,0,0,1.12,3.9c.05,0-.37-1.78-.93-3.95S409.43,213.78,409.38,213.79Z" style="fill: rgb(38, 50, 56); transform-origin: 410.405px 217.74px;" id="el4lh93wut994" class="animable"></path><path d="M415.76,226.05a4.23,4.23,0,0,1-.3,2.31,2.84,2.84,0,0,1-1.73,1.58,3.15,3.15,0,0,1-3.05-.65,8,8,0,0,1-1.91-5.77,3.52,3.52,0,0,1,2.19-3,3.17,3.17,0,0,1,3.61,1.56" style="fill: rgb(224, 224, 224); transform-origin: 412.279px 225.25px;" id="ela25e4tc7acn" class="animable"></path><path d="M414.57,222.1a2.77,2.77,0,0,0-.51-.73,3.65,3.65,0,0,0-.82-.64,3,3,0,0,0-1.33-.38,3.23,3.23,0,0,0-.81.08,2.67,2.67,0,0,0-.83.33,3.56,3.56,0,0,0-1.23,1.49,4.55,4.55,0,0,0-.41,2.09,8.41,8.41,0,0,0,.41,2.24,6.32,6.32,0,0,0,1.78,3,3,3,0,0,0,1.48.61,3.54,3.54,0,0,0,1.46-.13h0a2.11,2.11,0,0,0,.93-.51,3.44,3.44,0,0,0,.62-.72,4,4,0,0,0,.5-1.43,3.58,3.58,0,0,0,0-1,1.08,1.08,0,0,0,0-.25.66.66,0,0,0,0-.09,5.53,5.53,0,0,1-.05,1.29,3.89,3.89,0,0,1-.52,1.38,3.21,3.21,0,0,1-.61.68,2,2,0,0,1-.87.46h0a3.08,3.08,0,0,1-2.76-.48,6.22,6.22,0,0,1-1.71-2.87,5.84,5.84,0,0,1,0-4.2,3.4,3.4,0,0,1,1.15-1.42,2.43,2.43,0,0,1,.77-.32,2.84,2.84,0,0,1,2.06.25,3.28,3.28,0,0,1,.82.6A5.64,5.64,0,0,1,414.57,222.1Z" style="fill: rgb(38, 50, 56); transform-origin: 412.236px 225.282px;" id="els22qs68n8g" class="animable"></path><path d="M416.65,225.9a4.19,4.19,0,0,1-.3,2.3,2.85,2.85,0,0,1-1.73,1.59,3.15,3.15,0,0,1-3.05-.65,8,8,0,0,1-1.91-5.77,3.5,3.5,0,0,1,2.18-3,3.18,3.18,0,0,1,3.62,1.55" style="fill: rgb(224, 224, 224); transform-origin: 413.169px 225.099px;" id="elr8ul6qk4mzk" class="animable"></path><path d="M415.46,221.94a2.66,2.66,0,0,0-.51-.72,3.39,3.39,0,0,0-.82-.64,3,3,0,0,0-1.34-.38,2.86,2.86,0,0,0-.81.08,2.48,2.48,0,0,0-.82.33,3.44,3.44,0,0,0-1.23,1.49,4.48,4.48,0,0,0-.41,2.08,8.48,8.48,0,0,0,.41,2.25,6.37,6.37,0,0,0,1.78,3,3,3,0,0,0,1.48.61,3.55,3.55,0,0,0,1.46-.13h0a2.09,2.09,0,0,0,.94-.51,3.44,3.44,0,0,0,.62-.72,4,4,0,0,0,.5-1.43,3.58,3.58,0,0,0,0-1,2.19,2.19,0,0,0,0-.25.66.66,0,0,0,0-.09,5.27,5.27,0,0,1-.06,1.29,3.89,3.89,0,0,1-.52,1.38,2.9,2.9,0,0,1-.6.68,2,2,0,0,1-.87.46h0a3.08,3.08,0,0,1-2.76-.47,6.22,6.22,0,0,1-1.71-2.87,5.84,5.84,0,0,1,0-4.2,3.34,3.34,0,0,1,1.15-1.42,2.34,2.34,0,0,1,.77-.32,2.94,2.94,0,0,1,.77-.09,2.75,2.75,0,0,1,1.28.34,3.11,3.11,0,0,1,.82.6A7.13,7.13,0,0,1,415.46,221.94Z" style="fill: rgb(38, 50, 56); transform-origin: 413.13px 225.131px;" id="el807jbzfjcv" class="animable"></path><path d="M413.92,221.9a2,2,0,0,1,2.29.63,3.39,3.39,0,0,1,.63,2.42,3,3,0,0,1-.33,1.26,1.67,1.67,0,0,1-1,.82,2,2,0,0,1-1.77-.5,3.59,3.59,0,0,1-1.27-2.71,1.66,1.66,0,0,1,1-1.67" style="fill: rgb(224, 224, 224); transform-origin: 414.665px 224.419px;" id="elz7iid3jc2h" class="animable"></path><path d="M413.47,222.15a.41.41,0,0,0-.15,0,.91.91,0,0,0-.37.24,2,2,0,0,0-.51,1.5,3.53,3.53,0,0,0,.82,2.21,3,3,0,0,0,1.11.88,1.69,1.69,0,0,0,1.53,0,2.11,2.11,0,0,0,.9-1.24,4.25,4.25,0,0,0,.14-1.4,3,3,0,0,0-.95-2.15,2.12,2.12,0,0,0-1.52-.49,1.75,1.75,0,0,0-.42.11c-.09.05-.13.07-.13.08a2.8,2.8,0,0,1,.56-.11,2,2,0,0,1,1.41.52,2.86,2.86,0,0,1,.87,2.05,4.45,4.45,0,0,1-.15,1.34,2,2,0,0,1-.81,1.12,1.53,1.53,0,0,1-1.35,0,2.93,2.93,0,0,1-1.05-.82,3.45,3.45,0,0,1-.82-2.1,2,2,0,0,1,.43-1.44A1.62,1.62,0,0,1,413.47,222.15Z" style="fill: rgb(38, 50, 56); transform-origin: 414.692px 224.429px;" id="el2nxrsqfhutp" class="animable"></path><path d="M413.64,228.49s0-.13.13-.31a1.39,1.39,0,0,1,.52-.58,4,4,0,0,1,.75-.32c.2-.07.33-.12.33-.15a.81.81,0,0,0-.36,0,2.39,2.39,0,0,0-.82.29,1.29,1.29,0,0,0-.56.7C413.57,228.35,413.61,228.5,413.64,228.49Z" style="fill: rgb(38, 50, 56); transform-origin: 414.484px 227.8px;" id="eltvb6gjewv0j" class="animable"></path><path d="M411.62,222s.09.12.3.21a1.92,1.92,0,0,0,1.72-.13c.19-.13.28-.24.26-.26a4.49,4.49,0,0,1-1.12.33A5.55,5.55,0,0,1,411.62,222Z" style="fill: rgb(38, 50, 56); transform-origin: 412.761px 222.087px;" id="el3fzsf478zbw" class="animable"></path><path d="M396.17,235.44c-1,.29-2.14-.45-3.12-.07a1.46,1.46,0,1,0,1.13,2.7c1-.46,1.23-1.9,2.19-2.47" style="fill: rgb(38, 50, 56); transform-origin: 394.261px 236.721px;" id="elpdyvguvsolh" class="animable"></path><path d="M388,239.05a6.3,6.3,0,0,0,.91-.38l-.16-.33a4.13,4.13,0,0,1-3.29.4,6.08,6.08,0,0,1-3.26-3.36l0-.07c-.36-.72-5.31-15.46-6.22-18.27a5,5,0,0,1,2.4-6.31c.14-.08,3.45-1.8,6.86,2.39,3.57,4.39,9.81,13,10.39,14.12l.27.48c.79,1.34,2.44,4.14,1,6.54-1.61,2.66-3.63,2.48-3.71,2.48l0,.36c.09,0,2.32.22,4.06-2.66,1.57-2.57-.16-5.5-1-6.91l-.26-.46c-.58-1.08-6.85-9.78-10.42-14.18s-7.28-2.5-7.32-2.48a5.46,5.46,0,0,0-2.57,6.74c.75,2.31,5.85,17.56,6.23,18.32l0,.07a6.38,6.38,0,0,0,3.46,3.55A4.18,4.18,0,0,0,388,239.05Z" style="fill: rgb(38, 50, 56); transform-origin: 386.61px 224.634px;" id="eltzkaq2mixl" class="animable"></path><path d="M376.65,219.92a6.65,6.65,0,0,1,.16-1.95,6,6,0,0,1,.89-1.93,6.29,6.29,0,0,1,1.88-1.77,6.87,6.87,0,0,1,4.56-.84,7.74,7.74,0,0,1,1.88.6s0,0-.12-.09a3.84,3.84,0,0,0-.34-.19,6,6,0,0,0-1.39-.45,6.47,6.47,0,0,0-2.18-.06,6.67,6.67,0,0,0-2.51.87,6.21,6.21,0,0,0-1.93,1.84,6,6,0,0,0-.87,2,4.74,4.74,0,0,0-.12,1.46c0,.17,0,.3.05.39S376.64,219.93,376.65,219.92Z" style="fill: rgb(38, 50, 56); transform-origin: 381.284px 216.548px;" id="eljsyw5i3y6ib" class="animable"></path><polygon points="373.25 195.48 389.83 216.02 404.68 225.34 375.87 189.01 373.25 195.48" style="fill: rgb(235, 235, 235); transform-origin: 388.965px 207.175px;" id="ellv339a1bqe" class="animable"></polygon><path d="M358.58,208.58s-3.48,5.48-4,11.08c-.22,2.19,5.24,43.32,5.85,45.17s7.87,6.47,10,7.4,28.52,9.71,39.31,9.56l2.31-20.35-27.75-4.63s-3.24-3.08-4.93-3.7l-2.32-22.66-3.39-18.19S364,206.28,358.58,208.58Z" style="fill: rgb(235, 235, 235); transform-origin: 383.312px 244.923px;" id="elyzz7xl9rlwb" class="animable"></path><path d="M420.94,233.21c-.14,0-1.63-6-3.33-13.44s-3-13.52-2.83-13.55,1.63,6,3.34,13.43S421.08,233.17,420.94,233.21Z" style="fill: rgb(38, 50, 56); transform-origin: 417.858px 219.715px;" id="elxqh3jit07s" class="animable"></path><path d="M375.69,228.44s0,.14.08.42.13.72.22,1.26c.18,1.13.44,2.76.77,4.87.65,4.26,1.6,10.42,2.78,18.09l-.11-.13a11.11,11.11,0,0,1,2.58,1.63c.82.65,1.62,1.35,2.42,2.09l-.1-.05,27.76,4.58.22,0,0,.22c-.72,6.36-1.49,13.22-2.3,20.35l0,.24h-.23a72.15,72.15,0,0,1-15.27-2.38c-6.4-1.53-12.56-3.36-18.47-5.25-1.47-.48-2.93-1-4.37-1.47a18.51,18.51,0,0,1-4.09-2c-1.27-.78-2.51-1.6-3.69-2.46a17.76,17.76,0,0,1-3.28-2.9,2,2,0,0,1-.47-1c-.09-.37-.15-.71-.2-1.06-.12-.7-.23-1.39-.34-2.07-.2-1.38-.4-2.73-.6-4.07l-1.08-7.77c-.68-5-1.29-9.7-1.82-14s-1-8.14-1.33-11.55c-.08-.85-.18-1.67-.23-2.47a8.94,8.94,0,0,1,0-2.31,27.4,27.4,0,0,1,.94-3.91,29.85,29.85,0,0,1,2.15-5.12c.29-.56.55-1,.72-1.25a2.8,2.8,0,0,1,.28-.4l-.24.43c-.15.28-.39.7-.67,1.27a32.71,32.71,0,0,0-2.05,5.13,27.71,27.71,0,0,0-.89,3.89,9.48,9.48,0,0,0,0,2.25c.06.79.16,1.61.25,2.46.37,3.4.86,7.26,1.41,11.53s1.2,9,1.88,14q.53,3.76,1.1,7.77c.2,1.33.41,2.68.62,4.05l.33,2.07c.06.34.12.69.2,1a1.65,1.65,0,0,0,.39.87,17.26,17.26,0,0,0,3.19,2.79c1.17.86,2.4,1.67,3.66,2.44a18.33,18.33,0,0,0,4,2c1.43.5,2.89,1,4.36,1.46,5.9,1.88,12,3.7,18.43,5.23a72.5,72.5,0,0,0,15.14,2.37l-.25.23c.82-7.13,1.6-14,2.33-20.35l.2.26L384.27,257h-.06l0,0c-.79-.74-1.58-1.44-2.39-2.08a10.78,10.78,0,0,0-2.47-1.59l-.1-.05,0-.09c-1.11-7.69-2-13.86-2.62-18.13-.29-2.1-.52-3.74-.68-4.87-.07-.54-.12-1-.16-1.27A3.4,3.4,0,0,1,375.69,228.44Z" style="fill: rgb(38, 50, 56); transform-origin: 383.388px 245.29px;" id="el89tws7kbvw" class="animable"></path><path d="M374.05,222.33a17.18,17.18,0,0,1-1.28-2.47,28.07,28.07,0,0,0-3.46-5.66,12.42,12.42,0,0,0-5.3-3.78,19.66,19.66,0,0,0-2.68-.58,1.85,1.85,0,0,1,.75-.08,7.3,7.3,0,0,1,2.05.31,11.69,11.69,0,0,1,5.57,3.8,23.07,23.07,0,0,1,3.41,5.83A13.45,13.45,0,0,1,374.05,222.33Z" style="fill: rgb(38, 50, 56); transform-origin: 367.69px 216.04px;" id="elplyvcfee9v" class="animable"></path><path d="M369.61,256.89a10.64,10.64,0,0,1,9.62-3.68,24.24,24.24,0,0,0-5.1,1.08A25.33,25.33,0,0,0,369.61,256.89Z" style="fill: rgb(38, 50, 56); transform-origin: 374.42px 254.998px;" id="el2bg4i0s963o" class="animable"></path><path d="M372.76,260.11a10.31,10.31,0,0,1,6.89-7,25.75,25.75,0,0,0-4,3A27,27,0,0,0,372.76,260.11Z" style="fill: rgb(38, 50, 56); transform-origin: 376.205px 256.61px;" id="el2ojr2ibs8mf" class="animable"></path><path d="M404.68,225.34a6.87,6.87,0,0,1-1.15-.62l-3.12-1.87-10.71-6.62,0,0,0,0-5-6.15c-4.58-5.68-8.69-10.82-11.54-14.43l-.07-.09,0-.09,2-4.71.56-1.26a1.56,1.56,0,0,1,.23-.43,1.93,1.93,0,0,1-.14.47c-.12.35-.28.77-.47,1.29-.46,1.2-1.08,2.8-1.85,4.77l0-.18c2.92,3.55,7.08,8.65,11.67,14.34l5,6.16-.06-.05,10.62,6.77,3,2A8.05,8.05,0,0,1,404.68,225.34Z" style="fill: rgb(38, 50, 56); transform-origin: 388.885px 207.205px;" id="elkjwg8xzhvx" class="animable"></path><path d="M407.1,229.2a7.81,7.81,0,0,1,.11-1.34c.12-.94.27-2.16.46-3.64.41-3.08,1-7.37,1.72-12.2l0,.16c-.31-.58-.65-1.2-1-1.83-2.54-4.72-4.82-9-6.44-12.13l-1.89-3.7a9.5,9.5,0,0,1-.64-1.39,8.14,8.14,0,0,1,.81,1.29l2.05,3.63c1.7,3.07,4,7.33,6.56,12,.34.63.67,1.25,1,1.83l0,.08v.09c-.73,4.82-1.4,9.1-1.9,12.17-.25,1.47-.46,2.68-.62,3.62A6.09,6.09,0,0,1,407.1,229.2Z" style="fill: rgb(38, 50, 56); transform-origin: 404.63px 211.165px;" id="elp2jxq8gfh0d" class="animable"></path><path d="M376.69,211.39l.85-.52-.86.52a52,52,0,0,1-3.73-7l-.18-.43c-1-2.45-2.16-5.22-1.67-7.91V196a5.26,5.26,0,0,1,1.83-3l.27-.24H374v1.55l.18.21-.18.17v.07H374a3.14,3.14,0,0,0-.89,1.64v.05c-.36,2.1.66,4.57,1.56,6.75l.18.43a48.85,48.85,0,0,0,3.6,6.68Z" style="fill: rgb(38, 50, 56); transform-origin: 374.717px 202.075px;" id="elb3d48y87w1o" class="animable"></path><path d="M413.26,272.34a3.46,3.46,0,0,1,.14.75c.07.54.17,1.26.29,2.16.25,1.88.58,4.6,1,8,.77,6.73,1.72,16,2.59,26.34s1.49,19.64,1.87,26.4c.18,3.38.32,6.12.39,8,0,.91.05,1.63.07,2.18a4,4,0,0,1,0,.76,3.79,3.79,0,0,1-.09-.75c0-.55-.1-1.27-.17-2.18-.14-1.94-.33-4.66-.56-8-.47-6.75-1.15-16.08-2-26.38S415,290,414.28,283.25c-.33-3.33-.59-6-.79-8-.08-.9-.14-1.62-.19-2.17A6.17,6.17,0,0,1,413.26,272.34Z" style="fill: rgb(38, 50, 56); transform-origin: 416.444px 309.635px;" id="elzq2ehd2xm9j" class="animable"></path><path d="M400.43,295.8s-.22.26-.67.65-1.13.95-2,1.61a59.56,59.56,0,0,1-6.94,4.77,36.56,36.56,0,0,1-4.18,2.06,26.4,26.4,0,0,1-3.61,1.16,16.38,16.38,0,0,1-2.53.43,2.85,2.85,0,0,1-.94,0c0-.09,1.32-.24,3.37-.82a28.33,28.33,0,0,0,3.53-1.25,42.5,42.5,0,0,0,4.1-2.06c2.82-1.63,5.23-3.37,7-4.61A25.18,25.18,0,0,1,400.43,295.8Z" style="fill: rgb(38, 50, 56); transform-origin: 389.995px 301.159px;" id="el6z4c65qicx4" class="animable"></path><path d="M402,299.7a3.34,3.34,0,0,1-.54.8,18.76,18.76,0,0,1-1.73,2,28.27,28.27,0,0,1-15.21,8.09,18.91,18.91,0,0,1-2.62.32,4,4,0,0,1-1,0c0-.1,1.36-.2,3.52-.68a31.66,31.66,0,0,0,8.06-3,32.17,32.17,0,0,0,7-5C401,300.72,401.89,299.64,402,299.7Z" style="fill: rgb(38, 50, 56); transform-origin: 391.45px 305.32px;" id="elebzbr9zr4v" class="animable"></path><path d="M380.59,311.27a7.61,7.61,0,0,1-.54-2.74,7.32,7.32,0,0,1,0-2.79,14.92,14.92,0,0,1,.56,5.53Z" style="fill: rgb(38, 50, 56); transform-origin: 380.291px 308.505px;" id="elx36udkqy8r" class="animable"></path><path d="M378.19,178.74a1.94,1.94,0,0,1-1.72-1.17,6.73,6.73,0,0,1-.58-2.24c-.47-3.4-.93-6.81-1.4-10.22a51.87,51.87,0,0,1-.71-8.71,18.56,18.56,0,0,1,2.57-8c1.54-3,7.78-8.19,18.13-5.26" style="fill: rgb(38, 50, 56); transform-origin: 384.13px 160.506px;" id="el0ukk17e0aoq" class="animable"></path><path d="M377.66,166.48c-.14,0-5.53-1.52-5.26,4s5.72,4.07,5.72,3.91S377.66,166.48,377.66,166.48Z" style="fill: rgb(255, 190, 157); transform-origin: 375.255px 170.484px;" id="elpwt8zgfvzia" class="animable"></path><path d="M376.34,172.35s-.09.07-.25.15a1,1,0,0,1-.71.06,2.39,2.39,0,0,1-1.2-2.07,3.07,3.07,0,0,1,.2-1.37,1.09,1.09,0,0,1,.68-.77.49.49,0,0,1,.58.23c.08.15.05.26.08.27s.11-.1,0-.32a.51.51,0,0,0-.23-.33.72.72,0,0,0-.53-.12,1.37,1.37,0,0,0-1,.9,3.36,3.36,0,0,0-.25,1.54,2.49,2.49,0,0,0,1.51,2.3,1.07,1.07,0,0,0,.87-.19C376.34,172.48,376.36,172.36,376.34,172.35Z" style="fill: rgb(235, 153, 110); transform-origin: 375.023px 170.457px;" id="ell0ggkh2h18" class="animable"></path><path d="M405.79,176.66c0-3.87-.72-11.83-1.43-19a14.93,14.93,0,0,0-15.13-13.45l-.77,0c-8.33.64-12.43,8.06-11.56,16.37l1.17,26.48,19.85,10.89-.07-11.87S405.84,184.67,405.79,176.66Z" style="fill: rgb(255, 190, 157); transform-origin: 391.288px 171.079px;" id="ellcucl353od" class="animable"></path><path d="M397.86,186.06a18.58,18.58,0,0,1-10.49-2.77s2.52,5.8,10.5,4.94Z" style="fill: rgb(235, 153, 110); transform-origin: 392.62px 185.803px;" id="eldjsi3gtf8r" class="animable"></path><path d="M401.71,162.88a1.14,1.14,0,0,1-1.08,1.17,1.09,1.09,0,0,1-1.2-1,1.14,1.14,0,0,1,1.08-1.17A1.1,1.1,0,0,1,401.71,162.88Z" style="fill: rgb(38, 50, 56); transform-origin: 400.57px 162.965px;" id="elyzs49pm6mkb" class="animable"></path><path d="M402.82,161.16c-.14.15-1-.48-2.25-.45s-2.12.66-2.26.51.08-.34.46-.63a3.18,3.18,0,0,1,1.81-.59,3,3,0,0,1,1.79.54C402.76,160.82,402.89,161.09,402.82,161.16Z" style="fill: rgb(38, 50, 56); transform-origin: 400.553px 160.621px;" id="elzlwxovc4bb8" class="animable"></path><path d="M389.74,163.13a1.13,1.13,0,0,1-1.08,1.17,1.08,1.08,0,0,1-1.19-1,1.13,1.13,0,0,1,1.08-1.17A1.08,1.08,0,0,1,389.74,163.13Z" style="fill: rgb(38, 50, 56); transform-origin: 388.605px 163.215px;" id="el9udhulg0h8t" class="animable"></path><path d="M390.55,161c-.12.16-1.06-.36-2.28-.2s-2,.88-2.19.75,0-.34.39-.68a3.07,3.07,0,0,1,1.73-.78,3,3,0,0,1,1.84.34C390.45,160.71,390.61,161,390.55,161Z" style="fill: rgb(38, 50, 56); transform-origin: 388.284px 160.814px;" id="elxztj5etecfa" class="animable"></path><path d="M395.25,171.08a8,8,0,0,1,2-.4c.32,0,.61-.1.66-.32a1.6,1.6,0,0,0-.23-.93l-1-2.37a40.84,40.84,0,0,1-2.2-6.23,43.34,43.34,0,0,1,2.7,6c.32.84.63,1.63.93,2.39a1.83,1.83,0,0,1,.19,1.24.77.77,0,0,1-.51.46,1.89,1.89,0,0,1-.53.09A8,8,0,0,1,395.25,171.08Z" style="fill: rgb(38, 50, 56); transform-origin: 396.408px 165.972px;" id="el1srw0z9ew2h" class="animable"></path><path d="M391.64,172c.2,0,.23,1.32,1.39,2.24s2.58.76,2.6.95-.32.26-.92.29a3.31,3.31,0,0,1-2.16-.71,2.92,2.92,0,0,1-1.08-1.89C391.41,172.32,391.55,172,391.64,172Z" style="fill: rgb(38, 50, 56); transform-origin: 393.543px 173.741px;" id="elnn5f7u5k31" class="animable"></path><path d="M390.62,155.73c-.11.33-1.35.2-2.79.4s-2.6.61-2.8.32.11-.46.58-.8a4.68,4.68,0,0,1,2.06-.76,4.74,4.74,0,0,1,2.19.21C390.4,155.31,390.67,155.57,390.62,155.73Z" style="fill: rgb(38, 50, 56); transform-origin: 387.797px 155.698px;" id="elt1b0u4rp5ai" class="animable"></path><path d="M402.19,158c-.21.28-1.06,0-2.08,0s-1.88.22-2.09-.06,0-.43.42-.7a2.84,2.84,0,0,1,1.68-.49,2.88,2.88,0,0,1,1.67.53C402.16,157.6,402.28,157.89,402.19,158Z" style="fill: rgb(38, 50, 56); transform-origin: 400.078px 157.437px;" id="elo6ismlapyuj" class="animable"></path><path d="M395.09,143.33c-2.83-1.12-5.7-.53-8.71-.09a13.78,13.78,0,0,0-6.41,2.55,12.36,12.36,0,0,0-4.72,9.61,35.49,35.49,0,0,0,1.19,10.8l.3-.07a5.16,5.16,0,0,0-.05,2.78,1.8,1.8,0,0,0,2.21,1.21c1-.44,1-1.83,1-2.93a79.35,79.35,0,0,1,0-11.12c.16-2.76,1.73-6.15,3.89-7.46,3.93-2.62,9.05-.48,10.78-.18,2.67-2.28,5.16-.5,6.78,1.48C400.67,146.93,397.92,144.44,395.09,143.33Z" style="fill: rgb(38, 50, 56); transform-origin: 388.283px 156.437px;" id="elihpvoh72d2" class="animable"></path><path d="M394.48,148.43c1.76,0,3.16-1.18,5.11-.86,1.18.19,2.37,2.12,3.4,4.52a3.47,3.47,0,0,0-1-6.35,3.21,3.21,0,0,0,1.56.51,1.09,1.09,0,0,0,1.1-1,1.46,1.46,0,0,0-.65-1,8.55,8.55,0,0,0-12,1.38" style="fill: rgb(38, 50, 56); transform-origin: 398.334px 147.246px;" id="elwy6mtwyod2" class="animable"></path><path d="M403.52,145.12c0,.07-.57-.3-1.52-.6a6.12,6.12,0,0,0-3.75,0,6.2,6.2,0,0,0-3,2.31c-.56.82-.73,1.43-.82,1.41a2.94,2.94,0,0,1,.51-1.6,5.7,5.7,0,0,1,7.16-2.49C403.11,144.58,403.56,145.08,403.52,145.12Z" style="fill: rgb(69, 90, 100); transform-origin: 398.976px 145.978px;" id="elun1xpao1uqp" class="animable"></path><path d="M403.15,151.15a6.82,6.82,0,0,0,0-1.86,4,4,0,0,0-.88-1.75,4.19,4.19,0,0,0-2-1.22,5.53,5.53,0,0,0-4.27.74c-1,.62-1.48,1.18-1.54,1.12s.35-.69,1.34-1.42a6,6,0,0,1,1.94-.94,5.21,5.21,0,0,1,2.66,0,4.42,4.42,0,0,1,2.27,1.41,4,4,0,0,1,.87,2A2.39,2.39,0,0,1,403.15,151.15Z" style="fill: rgb(69, 90, 100); transform-origin: 399.026px 148.399px;" id="elxls1jhe6qrb" class="animable"></path><path d="M374.66,164.33s-.12-.25-.21-.73a10.42,10.42,0,0,1-.18-2.06,13.74,13.74,0,0,1,1.66-6.59,13.93,13.93,0,0,1,4.61-5,11.21,11.21,0,0,1,1.82-1,1.92,1.92,0,0,1,.73-.23c0,.08-1,.5-2.35,1.51a14.63,14.63,0,0,0-6.11,11.3C374.55,163.26,374.75,164.32,374.66,164.33Z" style="fill: rgb(69, 90, 100); transform-origin: 378.68px 156.525px;" id="elz2axwn2auj" class="animable"></path><path d="M375.88,165.34a12.35,12.35,0,0,1,3.69-11.09,25.64,25.64,0,0,0-2.75,5.24A25.52,25.52,0,0,0,375.88,165.34Z" style="fill: rgb(69, 90, 100); transform-origin: 377.634px 159.795px;" id="elv7kw4l3try" class="animable"></path><path d="M466.39,211.12c-.23-.61-1.39-.74-1.39-.74l.23-.35a1.67,1.67,0,0,0,.12-1.67l-.13-.25a2.81,2.81,0,0,0-1.34-1s.85-1.16.64-1.73a2.73,2.73,0,0,0-2.61-1.53,40.64,40.64,0,0,0-5.45,1.62,1.21,1.21,0,0,1-1.61-.89,17.24,17.24,0,0,0-1.75-5c-1-1.68-2.17-1.74-2.88-1.58a.56.56,0,0,0-.4.76,29.38,29.38,0,0,1,1.27,3.52c.19.9-.46,7.41-.46,7.41l-3.31,4.45,7.5,10.83,3.3-4.9,7.07-3.11s1.34-1.69,1.2-2.27a1.77,1.77,0,0,0-.7-.93l.88-1.23A3.77,3.77,0,0,0,466.39,211.12Z" style="fill: rgb(255, 190, 157); transform-origin: 456.949px 211.456px;" id="eln7dbl2ps3k" class="animable"></path><path d="M464.51,207.29l-.14.09-.44.25-1.61.9-2.4,1.3c-.46.24-.92.52-1.45.74a1.91,1.91,0,0,1-1.74,0,1.31,1.31,0,0,1-.54-.75,1.91,1.91,0,0,1,0-.89,2.44,2.44,0,0,1,.91-1.35,9.38,9.38,0,0,1,1.23-.82l1.09-.65,1.59-.94.44-.24.15-.08s0,0-.14.11l-.42.27-1.56,1-1.08.67a10.54,10.54,0,0,0-1.2.81,2.41,2.41,0,0,0-.85,1.28,1.36,1.36,0,0,0,.48,1.46,1.44,1.44,0,0,0,.79.21,2.39,2.39,0,0,0,.8-.18c.51-.21,1-.49,1.43-.72l2.42-1.28,1.64-.84.45-.23Z" style="fill: rgb(235, 153, 110); transform-origin: 460.324px 207.815px;" id="elzbdsbi5bz3d" class="animable"></path><path d="M465.47,210.54a1.46,1.46,0,0,1-.34.2c-.22.12-.54.29-.95.48-.81.4-1.94.91-3.22,1.42a7.22,7.22,0,0,1-.95.34,1.85,1.85,0,0,1-1,0,1.48,1.48,0,0,1-1.06-1.17,1.4,1.4,0,0,1,.25-1,.9.9,0,0,1,.19-.22l.09-.06s-.1.1-.23.31a1.45,1.45,0,0,0-.19,1,1.39,1.39,0,0,0,1,1,1.81,1.81,0,0,0,.89,0c.3-.08.61-.22.93-.34,1.27-.51,2.41-1,3.23-1.37l1-.44A1.7,1.7,0,0,1,465.47,210.54Z" style="fill: rgb(235, 153, 110); transform-origin: 461.704px 211.789px;" id="elglibtsccxhu" class="animable"></path><path d="M465.84,213.62a1.11,1.11,0,0,1-.33.13l-.94.31-3.12.94c-.31.08-.6.18-.91.23a1.58,1.58,0,0,1-.89-.06,1,1,0,0,1-.58-.58,1.15,1.15,0,0,1,0-.71,1.49,1.49,0,0,1,.65-.76,1,1,0,0,1,.33-.15,3.52,3.52,0,0,1-.29.2,1.55,1.55,0,0,0-.57.75,1,1,0,0,0,0,.63.8.8,0,0,0,.51.47,1.46,1.46,0,0,0,.81,0c.28,0,.58-.15.88-.23,1.22-.36,2.33-.68,3.13-.89l1-.26Z" style="fill: rgb(235, 153, 110); transform-origin: 462.427px 214.119px;" id="elol0uhprwxtk" class="animable"></path><path d="M465.88,216.44a8.09,8.09,0,0,1-1.07.11l-2.57.14-.74,0a2.74,2.74,0,0,1-.7,0,1,1,0,0,1-.57-.31.63.63,0,0,1-.15-.56.93.93,0,0,1,.5-.62.47.47,0,0,1,.28-.07,2,2,0,0,0-.25.13.9.9,0,0,0-.42.58.56.56,0,0,0,.14.45.85.85,0,0,0,.5.25,3,3,0,0,0,.67,0l.73,0c1,0,1.92-.08,2.58-.09A6.51,6.51,0,0,1,465.88,216.44Z" style="fill: rgb(235, 153, 110); transform-origin: 462.973px 215.921px;" id="elxwagkdmfzu" class="animable"></path><path d="M459.1,214a9.59,9.59,0,0,0-1.8-.47,9.29,9.29,0,0,0-1.86.08,4.09,4.09,0,0,1,3.66.39Z" style="fill: rgb(235, 153, 110); transform-origin: 457.27px 213.674px;" id="elbfqv9tfjhii" class="animable"></path><path d="M411.91,262.63l1.56-.4s.54-2.61,1.23-3.16,7.56-3.68,9.07-4.5,7.41-3.51,8.15-2.09c.84,1.62-1.57,3-2.87,3.57s-5,2.06-4.27,2.95,9.07.49,9.07.49l1-1.4s1.83,1.73,1.62,3.24a6.51,6.51,0,0,1-.82,2.47h-.62a1.72,1.72,0,0,1,.07,1.79,16.59,16.59,0,0,1-1.64,2.05,6.12,6.12,0,0,1-3.91,2.86c-.35.09-14.07,1.29-14.07,1.29l-4.6.46Z" style="fill: rgb(255, 190, 157); transform-origin: 423.683px 262.162px;" id="eln7atziqrss" class="animable"></path></g><g id="freepik--Shield--inject-4" class="animable" style="transform-origin: 102.185px 99.2229px;"><path d="M136.84,58.7,100.42,45.28,64.36,58.52c-4.61,2.23-8.64,3.56-8.64,8V88.39A84.33,84.33,0,0,0,67.6,132,74.57,74.57,0,0,0,100.78,162c14.74-4.91,25.74-18,32.47-29.21a84.4,84.4,0,0,0,11.88-43.59V69.54C145.13,63.27,141.89,60.21,136.84,58.7Z" style="fill: rgb(94, 134, 255); transform-origin: 100.425px 103.64px;" id="elzhjf0u8tp5o" class="animable"></path><g id="el0nkkq6awjjc"><g style="opacity: 0.8; transform-origin: 100.425px 103.64px;" class="animable"><path d="M136.84,58.7,100.42,45.28,64.36,58.52c-4.61,2.23-8.64,3.56-8.64,8V88.39A84.33,84.33,0,0,0,67.6,132,74.57,74.57,0,0,0,100.78,162c14.74-4.91,25.74-18,32.47-29.21a84.4,84.4,0,0,0,11.88-43.59V69.54C145.13,63.27,141.89,60.21,136.84,58.7Z" style="fill: rgb(255, 255, 255); transform-origin: 100.425px 103.64px;" id="elebes42kggdd" class="animable"></path></g></g><path d="M129.64,67.59,100.42,56.83,71.49,67.44c-3.7,1.79-6.94,2.86-6.94,6.39V91.41a67.66,67.66,0,0,0,9.54,35,59.79,59.79,0,0,0,26.62,24.12c11.82-3.94,20.65-14.45,26.05-23.43a67.75,67.75,0,0,0,9.53-35V76.29C136.29,71.26,133.69,68.8,129.64,67.59Z" style="fill: rgb(94, 134, 255); transform-origin: 100.42px 103.68px;" id="el7xnaeogcycu" class="animable"></path><polygon points="122.54 97.79 105.36 97.79 105.36 80.6 95.49 80.6 95.49 97.79 78.3 97.79 78.3 107.66 95.49 107.66 95.49 124.84 105.36 124.84 105.36 107.66 122.54 107.66 122.54 97.79" style="fill: rgb(255, 255, 255); transform-origin: 100.42px 102.72px;" id="el72xk4nbttgt" class="animable"></polygon><path d="M154.65,147.85s.16-.24.5-.69l.29-.37c.1-.15.18-.32.29-.5a7.72,7.72,0,0,0,.65-1.29c.1-.26.22-.52.32-.81s.17-.61.26-.93a6.84,6.84,0,0,0,.21-1,10,10,0,0,0,.16-1.15,21.63,21.63,0,0,0-.25-5.51A49.64,49.64,0,0,0,152,121.29a111.35,111.35,0,0,0-10.88-16.92,173.16,173.16,0,0,0-16.22-18.22A199.27,199.27,0,0,0,103.61,68c-4-2.93-8.17-5.76-12.59-8.43a121,121,0,0,0-14-7.33,65,65,0,0,0-15.56-4.88,27.48,27.48,0,0,0-8.3-.2,15.23,15.23,0,0,0-4,1.16,10,10,0,0,0-5.43,6.08,15.53,15.53,0,0,0-.7,4.11,27.52,27.52,0,0,0,1.15,8.23,65.09,65.09,0,0,0,6.61,14.91,123.15,123.15,0,0,0,8.88,13.06c3.16,4.09,6.45,7.93,9.81,11.55A199.41,199.41,0,0,0,90,125.33a173.09,173.09,0,0,0,20,14,111,111,0,0,0,18,8.88,49.58,49.58,0,0,0,14.75,3.41,21.41,21.41,0,0,0,5.51-.38,9.16,9.16,0,0,0,1.12-.28,6,6,0,0,0,1-.34l.9-.36c.27-.13.52-.28.76-.41a6.86,6.86,0,0,0,1.21-.79c.17-.12.33-.23.46-.34l.34-.33c.41-.39.63-.58.63-.58l-.6.6-.34.34c-.13.11-.29.22-.46.35A7.45,7.45,0,0,1,152,150l-.76.42-.9.37a6.3,6.3,0,0,1-1,.34,11.61,11.61,0,0,1-1.13.3,21.93,21.93,0,0,1-5.53.41,49.64,49.64,0,0,1-14.81-3.37,111.07,111.07,0,0,1-18.1-8.85,174.16,174.16,0,0,1-20-14,198.69,198.69,0,0,1-20.54-19.1c-3.36-3.63-6.66-7.47-9.83-11.57a121.76,121.76,0,0,1-8.91-13.09,65.66,65.66,0,0,1-6.65-15,27.69,27.69,0,0,1-1.15-8.32,15.94,15.94,0,0,1,.71-4.21,11.68,11.68,0,0,1,2.14-3.73A11.56,11.56,0,0,1,49,48a16,16,0,0,1,4.09-1.19,27.79,27.79,0,0,1,8.4.21,65.79,65.79,0,0,1,15.64,4.9,122.31,122.31,0,0,1,14,7.36c4.43,2.68,8.63,5.52,12.61,8.45A199.82,199.82,0,0,1,125.1,86a174.19,174.19,0,0,1,16.21,18.28,110.2,110.2,0,0,1,10.86,17,49.41,49.41,0,0,1,5,14.33,21.78,21.78,0,0,1,.23,5.54c0,.41-.12.79-.17,1.15a8.11,8.11,0,0,1-.22,1.05c-.1.32-.19.64-.27.93s-.23.56-.33.81a8.23,8.23,0,0,1-.67,1.3c-.11.18-.2.35-.29.49l-.3.37Z" style="fill: rgb(94, 134, 255); transform-origin: 100.084px 99.2288px;" id="elrd7yhd4yb6q" class="animable"></path><path d="M174.78,99.25s0-.29-.08-.85c0-.14,0-.3,0-.47s-.08-.36-.12-.56a7.81,7.81,0,0,0-.38-1.4c-.09-.25-.18-.53-.3-.82l-.42-.86a6.29,6.29,0,0,0-.54-.92,8.89,8.89,0,0,0-.64-1,21.21,21.21,0,0,0-3.86-4,49.43,49.43,0,0,0-13.28-7.27,111.55,111.55,0,0,0-19.38-5.39A174.22,174.22,0,0,0,111.51,73a198.52,198.52,0,0,0-28,.61c-4.92.47-9.93,1.15-15,2.1a122.08,122.08,0,0,0-15.32,3.83,65.49,65.49,0,0,0-14.85,6.72A27.34,27.34,0,0,0,32,91.63a15.49,15.49,0,0,0-2.22,3.54,10,10,0,0,0,0,8.15A15.49,15.49,0,0,0,32,106.86a27.63,27.63,0,0,0,6.33,5.38A65.36,65.36,0,0,0,53.19,119a123.46,123.46,0,0,0,15.32,3.84c5.08,1,10.09,1.62,15,2.09a198.66,198.66,0,0,0,28,.61,172.56,172.56,0,0,0,24.23-2.8,112.61,112.61,0,0,0,19.39-5.38A49.51,49.51,0,0,0,168.41,110a21.21,21.21,0,0,0,3.86-4,10.83,10.83,0,0,0,.65-1,7.23,7.23,0,0,0,.53-.92l.43-.86c.11-.29.2-.56.29-.82a7.81,7.81,0,0,0,.38-1.4c0-.2.09-.39.12-.56s0-.33,0-.47c.05-.56.08-.85.08-.85s0,.29,0,.85l0,.48c0,.17-.07.36-.11.56a7,7,0,0,1-.37,1.41c-.09.26-.17.54-.29.83s-.27.57-.42.87a6.7,6.7,0,0,1-.53.93,10.79,10.79,0,0,1-.64,1,21.63,21.63,0,0,1-3.86,4,49.5,49.5,0,0,1-13.29,7.35,111.62,111.62,0,0,1-19.4,5.44,172.91,172.91,0,0,1-24.27,2.84,199,199,0,0,1-28-.58c-4.92-.46-9.95-1.14-15-2.09a121,121,0,0,1-15.36-3.84,65.56,65.56,0,0,1-14.94-6.75,27.67,27.67,0,0,1-6.4-5.44,16,16,0,0,1-2.27-3.62,11.62,11.62,0,0,1-.89-4.21,11.42,11.42,0,0,1,.9-4.2,15.63,15.63,0,0,1,2.27-3.62A27.87,27.87,0,0,1,38.16,86a65.69,65.69,0,0,1,14.93-6.75A121.85,121.85,0,0,1,68.45,75.4c5.09-1,10.12-1.62,15-2.09a199,199,0,0,1,28-.58,171.22,171.22,0,0,1,24.26,2.85A110.87,110.87,0,0,1,155.2,81a49.5,49.5,0,0,1,13.29,7.34,21.63,21.63,0,0,1,3.86,4,10.79,10.79,0,0,1,.64,1,8.1,8.1,0,0,1,.53.93l.42.88c.12.28.2.56.29.82a7.22,7.22,0,0,1,.37,1.41c0,.2.08.39.11.57l0,.47C174.77,99,174.78,99.25,174.78,99.25Z" style="fill: rgb(94, 134, 255); transform-origin: 101.745px 99.205px;" id="elk780aue37h" class="animable"></path><path d="M148.1,38.76l-.71-.46L147,38c-.15-.09-.33-.16-.51-.25a8.2,8.2,0,0,0-1.34-.56l-.83-.27-.95-.19a6.66,6.66,0,0,0-1.05-.14,10.56,10.56,0,0,0-1.15-.08,21.76,21.76,0,0,0-5.49.63,49.48,49.48,0,0,0-13.88,6,111.27,111.27,0,0,0-16.13,12A172.12,172.12,0,0,0,88.6,72.68a197.25,197.25,0,0,0-16.67,22.5c-2.64,4.17-5.18,8.55-7.54,13.14A120.86,120.86,0,0,0,58,122.78a65.14,65.14,0,0,0-3.8,15.86,27.5,27.5,0,0,0,.37,8.29A15.76,15.76,0,0,0,56,150.85a10.07,10.07,0,0,0,6.44,5,15.32,15.32,0,0,0,4.16.41,27.42,27.42,0,0,0,8.12-1.7,65.31,65.31,0,0,0,14.42-7.63,119.83,119.83,0,0,0,12.42-9.76c3.87-3.43,7.47-7,10.85-10.58a197.85,197.85,0,0,0,17.64-21.75A173.2,173.2,0,0,0,142.73,84a111.74,111.74,0,0,0,7.62-18.62,49.82,49.82,0,0,0,2.38-14.95,21.6,21.6,0,0,0-.76-5.47c-.08-.39-.25-.74-.36-1.1a7.17,7.17,0,0,0-.4-1q-.22-.45-.42-.87c-.16-.26-.32-.5-.47-.73a7.29,7.29,0,0,0-.87-1.16c-.13-.15-.25-.31-.37-.43l-.35-.32-.63-.58s.23.18.65.56l.36.31c.12.12.24.27.38.43a7.81,7.81,0,0,1,.89,1.15c.15.23.32.47.47.74s.28.56.43.87a5.76,5.76,0,0,1,.41,1c.12.36.29.71.38,1.1a21.77,21.77,0,0,1,.79,5.5,49.62,49.62,0,0,1-2.34,15,110.61,110.61,0,0,1-7.59,18.67A171.27,171.27,0,0,1,130.31,105a196,196,0,0,1-17.64,21.81c-3.38,3.61-7,7.17-10.86,10.61a121.75,121.75,0,0,1-12.45,9.78,64.88,64.88,0,0,1-14.49,7.67,27.59,27.59,0,0,1-8.22,1.73,16.06,16.06,0,0,1-4.25-.42,11.79,11.79,0,0,1-3.87-1.88A11.61,11.61,0,0,1,55.76,151a15.85,15.85,0,0,1-1.47-4,27.54,27.54,0,0,1-.37-8.39,65.56,65.56,0,0,1,3.81-15.94,122.34,122.34,0,0,1,6.38-14.49c2.37-4.61,4.91-9,7.56-13.16A198,198,0,0,1,88.39,72.5a172.37,172.37,0,0,1,17.12-17.44,110,110,0,0,1,16.19-12,49.15,49.15,0,0,1,14-6,21.36,21.36,0,0,1,5.51-.61,10.5,10.5,0,0,1,1.16.09,6.94,6.94,0,0,1,1.06.15l1,.2c.3.09.57.19.83.28a8.17,8.17,0,0,1,1.34.57c.18.1.36.17.51.26l.39.27Z" style="fill: rgb(94, 134, 255); transform-origin: 103.308px 96.5278px;" id="elsjeqwebmll" class="animable"></path><path d="M28,129.39a2.71,2.71,0,1,1-3.84,0A2.7,2.7,0,0,1,28,129.39Z" style="fill: rgb(94, 134, 255); transform-origin: 26.08px 131.3px;" id="eldb0stlgn32" class="animable"></path><path d="M181,45.36a2.71,2.71,0,1,1-2.71-2.71A2.71,2.71,0,0,1,181,45.36Z" style="fill: rgb(94, 134, 255); transform-origin: 178.29px 45.36px;" id="elncs517vz0a" class="animable"></path><path d="M45.08,138.3a.69.69,0,1,1-.69-.69A.69.69,0,0,1,45.08,138.3Z" style="fill: rgb(94, 134, 255); transform-origin: 44.39px 138.3px;" id="el2a5yvw3t1hr" class="animable"></path><path d="M59.79,62.32a.69.69,0,1,1-.69-.69A.69.69,0,0,1,59.79,62.32Z" style="fill: rgb(94, 134, 255); transform-origin: 59.1px 62.32px;" id="el999ija661it" class="animable"></path><path d="M167.33,99.25a.69.69,0,1,1-.69-.69A.69.69,0,0,1,167.33,99.25Z" style="fill: rgb(94, 134, 255); transform-origin: 166.64px 99.25px;" id="elrur4gzmkgg" class="animable"></path><path d="M176.9,67.12a.69.69,0,1,1-.69-.68A.68.68,0,0,1,176.9,67.12Z" style="fill: rgb(94, 134, 255); transform-origin: 176.21px 67.13px;" id="el4z2wan3sq46" class="animable"></path></g><defs>     <filter id="active" height="200%">         <feMorphology in="SourceAlpha" result="DILATED" operator="dilate" radius="2"></feMorphology>                <feFlood flood-color="#32DFEC" flood-opacity="1" result="PINK"></feFlood>        <feComposite in="PINK" in2="DILATED" operator="in" result="OUTLINE"></feComposite>        <feMerge>            <feMergeNode in="OUTLINE"></feMergeNode>            <feMergeNode in="SourceGraphic"></feMergeNode>        </feMerge>    </filter>    <filter id="hover" height="200%">        <feMorphology in="SourceAlpha" result="DILATED" operator="dilate" radius="2"></feMorphology>                <feFlood flood-color="#ff0000" flood-opacity="0.5" result="PINK"></feFlood>        <feComposite in="PINK" in2="DILATED" operator="in" result="OUTLINE"></feComposite>        <feMerge>            <feMergeNode in="OUTLINE"></feMergeNode>            <feMergeNode in="SourceGraphic"></feMergeNode>        </feMerge>            <feColorMatrix type="matrix" values="0   0   0   0   0                0   1   0   0   0                0   0   0   0   0                0   0   0   1   0 "></feColorMatrix>    </filter></defs></svg>