<svg class="animated" id="freepik_stories-medical-research" xmlns="http://www.w3.org/2000/svg" viewBox="0 0 500 500" version="1.1" xmlns:xlink="http://www.w3.org/1999/xlink" xmlns:svgjs="http://svgjs.com/svgjs"><style>svg#freepik_stories-medical-research:not(.animated) .animable {opacity: 0;}svg#freepik_stories-medical-research.animated #freepik--speech-bubbles--inject-11 {animation: 1.5s Infinite  linear floating;animation-delay: 0s;}            @keyframes floating {                0% {                    opacity: 1;                    transform: translateY(0px);                }                50% {                    transform: translateY(-10px);                }                100% {                    opacity: 1;                    transform: translateY(0px);                }            }        </style><g id="freepik--background-simple--inject-11" class="animable" style="transform-origin: 250.003px 214.705px;"><path d="M220.82,174.22c-7.36-17.82-25.17-30.28-44.21-33.33s-38.88,2.6-54.92,13.31-28.51,26.14-37.89,43C72.75,217,65.66,239.34,65.58,262s7.21,45.72,22.12,62.83c19,21.78,82,37.71,138.21-1.82,6.37-4.48,15.55-3.55,23.19-2.07,19.8,3.82,65.51,18.45,85.52,16,63.87-7.72,86.23-74.9,92.56-104.53,4.93-23.05,8.84-46.65,6.6-70.11s-11.23-47-28.66-62.87S361,77,339.6,86.85c-33.28,15.29-87.18,83.13-91,87.37s-9,7.65-14.65,8.08A13,13,0,0,1,220.82,174.22Z" style="fill: rgb(64, 123, 255); transform-origin: 250.003px 214.705px;" id="elfv47egzdveo" class="animable"></path><g id="elpt200x05y4"><path d="M220.82,174.22c-7.36-17.82-25.17-30.28-44.21-33.33s-38.88,2.6-54.92,13.31-28.51,26.14-37.89,43C72.75,217,65.66,239.34,65.58,262s7.21,45.72,22.12,62.83c19,21.78,82,37.71,138.21-1.82,6.37-4.48,15.55-3.55,23.19-2.07,19.8,3.82,65.51,18.45,85.52,16,63.87-7.72,86.23-74.9,92.56-104.53,4.93-23.05,8.84-46.65,6.6-70.11s-11.23-47-28.66-62.87S361,77,339.6,86.85c-33.28,15.29-87.18,83.13-91,87.37s-9,7.65-14.65,8.08A13,13,0,0,1,220.82,174.22Z" style="fill: rgb(255, 255, 255); opacity: 0.9; transform-origin: 250.003px 214.705px;" class="animable"></path></g></g><g id="freepik--Shadow--inject-11" class="animable" style="transform-origin: 250px 409.39px;"><ellipse id="freepik--path--inject-11" cx="250" cy="409.39" rx="193.89" ry="11.32" style="fill: rgb(245, 245, 245); transform-origin: 250px 409.39px;" class="animable"></ellipse></g><g id="freepik--character-2--inject-11" class="animable" style="transform-origin: 307.22px 250.536px;"><path d="M264.1,175.85,256,167.71a2.91,2.91,0,0,1-.85-2.06v-3a2.92,2.92,0,0,0-1.73-2.66l-2.28-1a3.07,3.07,0,0,1-.87-.6l-2.09-2.08a2.9,2.9,0,0,0-3.8-.28l-1.14.85a2.9,2.9,0,0,0-1.08,1.67l-1.19,5.07a2.9,2.9,0,0,0,1.14,3l5,3.62,2.88,1.88a3.26,3.26,0,0,1,.65.58l8.47,10.16Z" style="fill: rgb(64, 123, 255); transform-origin: 252.499px 169.155px;" id="eln196tomsoqm" class="animable"></path><g id="el172ssghe8dl"><path d="M264.1,175.85,256,167.71a2.91,2.91,0,0,1-.85-2.06v-3a2.92,2.92,0,0,0-1.73-2.66l-2.28-1a3.07,3.07,0,0,1-.87-.6l-2.09-2.08a2.9,2.9,0,0,0-3.8-.28l-1.14.85a2.9,2.9,0,0,0-1.08,1.67l-1.19,5.07a2.9,2.9,0,0,0,1.14,3l5,3.62,2.88,1.88a3.26,3.26,0,0,1,.65.58l8.47,10.16Z" style="fill: rgb(255, 255, 255); opacity: 0.3; transform-origin: 252.499px 169.155px;" class="animable"></path></g><path d="M304.47,140.34s-11.25,1-18.87,19.51-11.75,19.5-14.38,18A62.55,62.55,0,0,1,266,174.3a2.5,2.5,0,0,0-3.43.44l-4.78,6a2.48,2.48,0,0,0,0,3.09c2.84,3.56,10.39,11.68,18.68,9.45,11.25-3,19.47-19,20-23.91S304.47,140.34,304.47,140.34Z" style="fill: rgb(64, 123, 255); transform-origin: 280.86px 167.001px;" id="el8fa30xwoxwb" class="animable"></path><g id="elesdhggzyfms"><path d="M304.47,140.34s-11.25,1-18.87,19.51-11.75,19.5-14.38,18A62.55,62.55,0,0,1,266,174.3a2.5,2.5,0,0,0-3.43.44l-4.78,6a2.48,2.48,0,0,0,0,3.09c2.84,3.56,10.39,11.68,18.68,9.45,11.25-3,19.47-19,20-23.91S304.47,140.34,304.47,140.34Z" style="fill: rgb(255, 255, 255); opacity: 0.6; transform-origin: 280.86px 167.001px;" class="animable"></path></g><path d="M301.66,100.08s-7-4.24-7.1-.92,7.31,6.89,10.46,6.46Z" style="fill: rgb(38, 50, 56); transform-origin: 299.789px 101.773px;" id="elzzqvyr2abhs" class="animable"></path><g id="elnt6s85bhoc"><path d="M301.66,100.08s-7-4.24-7.1-.92,7.31,6.89,10.46,6.46Z" style="opacity: 0.4; transform-origin: 299.789px 101.773px;" class="animable"></path></g><path d="M295.94,384.16l.75,14.77a1.68,1.68,0,0,1-.84,1.54c-1.44.81-4.18,3.36-5.4,3.83a66.83,66.83,0,0,1-6.69,1.7,1.67,1.67,0,0,0-1.32,1.59h0a1.68,1.68,0,0,0,1.64,1.72l21.82-.46a1.68,1.68,0,0,0,1.71-1.58l1.21-22.38a1.69,1.69,0,0,0-1.55-1.77l-9.53-.72A1.68,1.68,0,0,0,295.94,384.16Z" style="fill: rgb(38, 50, 56); transform-origin: 295.631px 395.853px;" id="elp9k0paz9s6" class="animable"></path><path d="M291.92,239.6l1.95,89.4.53,54.53a2.9,2.9,0,0,0,2.9,2.82h10.3a2.9,2.9,0,0,0,2.89-2.61c1.23-12.23,6.15-31.63,3.95-54.49,0,0,7.39-60,7.84-78.33l-1.67-16.29Z" style="fill: rgb(38, 50, 56); transform-origin: 307.1px 310.49px;" id="el0lrsg5h1krx" class="animable"></path><path d="M354.68,384.72l5.69,13.64a1.67,1.67,0,0,1-.27,1.73,59.16,59.16,0,0,1-4.16,4.51,68.82,68.82,0,0,1-5.72,3.86,1.65,1.65,0,0,0-.7,1.94h0a1.67,1.67,0,0,0,2.11,1.07l20.76-6.88a1.67,1.67,0,0,0,1.08-2.07L367,381.05a1.67,1.67,0,0,0-2.05-1.14l-9.21,2.55A1.67,1.67,0,0,0,354.68,384.72Z" style="fill: rgb(38, 50, 56); transform-origin: 361.486px 395.701px;" id="eltjeuas6kwb" class="animable"></path><g id="el5ftg7yhl93t"><path d="M315.76,256.85s-1.15,15.08,1.74,39.58c0,0,2.5-18,3.89-27.87Z" style="opacity: 0.1; transform-origin: 318.462px 276.64px;" class="animable"></path></g><path d="M309.83,240.23l21.78,91.17,21,53.13a2.83,2.83,0,0,0,3.57,1.6l10.74-3.48a2.82,2.82,0,0,0,1.79-3.37c-3-11.65-5.66-31-15.71-51,0,0-6-57.84-14.08-88.77Z" style="fill: rgb(38, 50, 56); transform-origin: 339.316px 312.902px;" id="elxnq6u6i1sw" class="animable"></path><path d="M331.88,140.94s-.35-.13-1.07-.32V146h-26v-5.26l-1.06.16-3.25,2.41s-6.89,15-8.55,52.25v48.5h53Z" style="fill: rgb(64, 123, 255); transform-origin: 318.45px 192.34px;" id="elbn8m4v7tdjb" class="animable"></path><path d="M323.07,138.08c-1.77-5.46-1.39-13.29-.8-18.2l-11.84,11.71a14.47,14.47,0,0,1,.75,6.51,2.37,2.37,0,0,1-2.06,2l-5,1.58-.6,3.9,3.05.78,4.4.6,9.54-.6L331,141.44a19.87,19.87,0,0,0-4.92-.92A4.27,4.27,0,0,1,323.07,138.08Z" style="fill: rgb(255, 195, 189); transform-origin: 317.26px 133.42px;" id="el7xrb7f86ic5" class="animable"></path><g id="elia4is6a95r"><path d="M317.45,125.56l-6.82,6.68a16.18,16.18,0,0,1,.65,3.8c2.78-.64,6.19-3.26,7.07-6.41C318.92,127.69,318.19,125.73,317.45,125.56Z" style="opacity: 0.2; isolation: isolate; transform-origin: 314.592px 130.8px;" class="animable"></path></g><path d="M324.05,111c-.5,9-.36,14.28-4.88,18.9-6.79,7-17.92,2.88-20.09-6.06-2-8.11-.78-21.42,8-25a12.26,12.26,0,0,1,17,12.19Z" style="fill: rgb(255, 195, 189); transform-origin: 311.181px 115.653px;" id="elg4u4s6k0th" class="animable"></path><path d="M310,113.68c0,.74-.38,1.33-.86,1.33s-.87-.59-.87-1.32.38-1.32.86-1.32S310,113,310,113.68Z" style="fill: rgb(38, 50, 56); transform-origin: 309.135px 113.69px;" id="elwyhwcviakms" class="animable"></path><path d="M301.73,113.72c0,.72-.38,1.32-.86,1.32s-.87-.59-.87-1.32.38-1.33.86-1.33S301.73,113,301.73,113.72Z" style="fill: rgb(38, 50, 56); transform-origin: 300.865px 113.715px;" id="el2l9xnhgjrm7" class="animable"></path><path d="M313.11,109.55a.52.52,0,0,0,.19-.11.45.45,0,0,0-.1-.6,4.29,4.29,0,0,0-3.87-.65.43.43,0,1,0,.31.8h0a3.42,3.42,0,0,1,3.06.55A.43.43,0,0,0,313.11,109.55Z" style="fill: rgb(38, 50, 56); transform-origin: 311.2px 108.792px;" id="elyxe4rlpn9xj" class="animable"></path><path d="M297.93,109.58a.39.39,0,0,0,.4,0,3.42,3.42,0,0,1,3-.55.42.42,0,0,0,.55-.25.42.42,0,0,0-.24-.55,4.28,4.28,0,0,0-3.88.65.42.42,0,0,0-.1.58h0A.41.41,0,0,0,297.93,109.58Z" style="fill: rgb(38, 50, 56); transform-origin: 299.748px 108.83px;" id="el3rqz7t5lbok" class="animable"></path><path d="M323.93,115a6.94,6.94,0,0,0-4.94-2h-4.14a4.44,4.44,0,0,0-8.84-.2,1.28,1.28,0,0,0-1,0,4.36,4.36,0,1,0,0,.65.71.71,0,0,1,.91,0,4.44,4.44,0,0,0,8.87.12H319a6.37,6.37,0,0,1,4.53,1.88l1.34,1.34.4-.41Zm-23.3,2.13a3.89,3.89,0,1,1,3.88-3.89A3.89,3.89,0,0,1,300.63,117.1Zm9.79,0a3.89,3.89,0,1,1,3.89-3.89A3.89,3.89,0,0,1,310.42,117.1Z" style="fill: rgb(64, 123, 255); transform-origin: 310.786px 113.257px;" id="el86onpvfxjce" class="animable"></path><path d="M323,98.47a12,12,0,0,0-9.43-5.66c-2.69-.14-5.62.59-7.92-.81-.84-.52-1.51-1.28-2.32-1.84a2.83,2.83,0,0,0-2.79-.46,8.51,8.51,0,0,0-4.26,8.76A9.28,9.28,0,0,0,302.8,105c4.07,1.08,8.48-.19,12.63.54,2.23.39,3.67,2.86,4.23,5.06.1.38.69.91.95,1.21,0,1.9,0,4.24,0,6.14a4.82,4.82,0,0,1,4.74-2.79L322,126.49a31.68,31.68,0,0,0,8-15.95,14.87,14.87,0,0,0-.77-7.87A6.51,6.51,0,0,0,323,98.47Z" style="fill: rgb(38, 50, 56); transform-origin: 313.197px 108.004px;" id="elcu1zamzh7bp" class="animable"></path><path d="M328.48,119.4a8.6,8.6,0,0,1-5.32,3.79c-2.93.65-4.24-2-3.29-4.69.85-2.4,3.4-5.66,6.27-5.12S329.93,117,328.48,119.4Z" style="fill: rgb(255, 195, 189); transform-origin: 324.361px 118.305px;" id="el1m5avmdzh25" class="animable"></path><path d="M305.21,113.69a26.35,26.35,0,0,1-3.48,6.27c1.33,1.2,3.51.64,3.51.64Z" style="fill: rgb(237, 132, 126); transform-origin: 303.485px 117.21px;" id="el7myjso6mk67" class="animable"></path><g id="eluicb99fv2s"><polygon points="292.54 244.1 293 247.34 331.21 249.35 331.21 244.1 292.54 244.1" style="opacity: 0.1; transform-origin: 311.875px 246.725px;" class="animable"></polygon></g><path d="M307.47,139.94s-2.06,4.91,3.29,5.54S327,139.94,327,139.94l2.31.53s-.06,8.88-11.89,12.3c0,0-3.42-4.42-6.83-4.5s-7.92,3.58-7.92,3.58S300.46,146,306.21,140Z" style="fill: rgb(64, 123, 255); transform-origin: 315.781px 146.355px;" id="elzg2xwdqfppq" class="animable"></path><g id="elf3rghu99a9g"><g style="opacity: 0.2; transform-origin: 315.781px 146.355px;" class="animable"><path d="M307.47,139.94s-2.06,4.91,3.29,5.54S327,139.94,327,139.94l2.31.53s-.06,8.88-11.89,12.3c0,0-3.42-4.42-6.83-4.5s-7.92,3.58-7.92,3.58S300.46,146,306.21,140Z" id="el8vltwqfv1l7" class="animable" style="transform-origin: 315.781px 146.355px;"></path></g></g><path d="M307.47,139.94s-7.5,3.16-10.25,23.41-3.75,58.25-3,76,1.75,29.25-3.75,28.5c0,0-.5-28.5,0-60.25S287.72,140.52,307.47,139.94Z" style="fill: rgb(64, 123, 255); transform-origin: 298.859px 203.912px;" id="elpt3xhe9g9cd" class="animable"></path><g id="elef5a8k0p9rg"><path d="M307.47,139.94s-7.5,3.16-10.25,23.41-3.75,58.25-3,76,1.75,29.25-3.75,28.5c0,0-.5-28.5,0-60.25S287.72,140.52,307.47,139.94Z" style="fill: rgb(255, 255, 255); opacity: 0.8; transform-origin: 298.859px 203.912px;" class="animable"></path></g><path d="M330,139.94s-9,5-10,36.66-.66,91.67,10,92.67,22.34-5,22.34-5-.76-11.48-2.75-26c-1.67-12.15-4.49-26.43-5.59-38-1.27-13.32,6-50,1.34-53.67S330,139.94,330,139.94Z" style="fill: rgb(64, 123, 255); transform-origin: 335.985px 204.661px;" id="elhjfsxeomi34" class="animable"></path><g id="elg8aorkary7i"><path d="M330,139.94s-9,5-10,36.66-.66,91.67,10,92.67,22.34-5,22.34-5-.76-11.48-2.75-26c-1.67-12.15-4.49-26.43-5.59-38-1.27-13.32,6-50,1.34-53.67S330,139.94,330,139.94Z" style="fill: rgb(255, 255, 255); opacity: 0.8; transform-origin: 335.985px 204.661px;" class="animable"></path></g><g id="elgylktnhuhds"><path d="M325.33,224.27h15a0,0,0,0,1,0,0v1.89a3.27,3.27,0,0,1-3.27,3.27H328.6a3.27,3.27,0,0,1-3.27-3.27v-1.89A0,0,0,0,1,325.33,224.27Z" style="fill: rgb(64, 123, 255); transform-origin: 332.83px 226.85px; transform: rotate(-8.18deg);" class="animable"></path></g><g id="eljapb63j189"><path d="M325.33,224.27h15a0,0,0,0,1,0,0v1.89a3.27,3.27,0,0,1-3.27,3.27H328.6a3.27,3.27,0,0,1-3.27-3.27v-1.89A0,0,0,0,1,325.33,224.27Z" style="fill: rgb(255, 255, 255); opacity: 0.6; transform-origin: 332.83px 226.85px; transform: rotate(-8.18deg);" class="animable"></path></g><path d="M318.2,214.73H297a1.67,1.67,0,0,1-1.62-1.47l-3.43-32.57a1.3,1.3,0,0,1,1.32-1.46h21.23a1.66,1.66,0,0,1,1.62,1.46l3.42,32.57A1.29,1.29,0,0,1,318.2,214.73Z" style="fill: rgb(38, 50, 56); transform-origin: 305.746px 196.981px;" id="elydojk4o4qtg" class="animable"></path><g id="eliipajcakhfa"><path d="M318.2,214.73H297a1.67,1.67,0,0,1-1.62-1.47l-3.43-32.57a1.3,1.3,0,0,1,1.32-1.46h21.23a1.66,1.66,0,0,1,1.62,1.46l3.42,32.57A1.29,1.29,0,0,1,318.2,214.73Z" style="fill: rgb(255, 255, 255); opacity: 0.5; transform-origin: 305.746px 196.981px;" class="animable"></path></g><path d="M306.67,181.81h-5.09a2.08,2.08,0,0,1-2-1.83l-.32-3H308l.32,3A1.62,1.62,0,0,1,306.67,181.81Z" style="fill: rgb(38, 50, 56); transform-origin: 303.797px 179.395px;" id="elb4f0y1unbsv" class="animable"></path><g id="el2gzguf6zavg"><path d="M306.67,181.81h-5.09a2.08,2.08,0,0,1-2-1.83l-.32-3H308l.32,3A1.62,1.62,0,0,1,306.67,181.81Z" style="fill: rgb(255, 255, 255); opacity: 0.7; transform-origin: 303.797px 179.395px;" class="animable"></path></g><path d="M315.47,179.23h-1a1.66,1.66,0,0,1,1.62,1.46l3.42,32.57a1.29,1.29,0,0,1-1.31,1.47h1a1.29,1.29,0,0,0,1.31-1.47l-3.42-32.57A1.66,1.66,0,0,0,315.47,179.23Z" style="fill: rgb(38, 50, 56); transform-origin: 317.496px 196.98px;" id="elygtthkgmd6p" class="animable"></path><g id="elphny8oseixq"><path d="M315.47,179.23h-1a1.66,1.66,0,0,1,1.62,1.46l3.42,32.57a1.29,1.29,0,0,1-1.31,1.47h1a1.29,1.29,0,0,0,1.31-1.47l-3.42-32.57A1.66,1.66,0,0,0,315.47,179.23Z" style="fill: rgb(255, 255, 255); opacity: 0.7; transform-origin: 317.496px 196.98px;" class="animable"></path></g><path d="M337.71,192.71l-11.83,2.67-5.24-3.12a3.07,3.07,0,0,0-2-.39l-4.26.62a3,3,0,0,0-2.23,1.56l-1,1.74a3,3,0,0,0-.32,2l.33,2a3,3,0,0,0,2.27,2.45l7.19,1.78a3,3,0,0,0,1.71-.07l5-1.69,14.33-1.67Z" style="fill: rgb(64, 123, 255); transform-origin: 326.219px 197.975px;" id="el42cs04o73yr" class="animable"></path><g id="elsotvso93qa"><path d="M337.71,192.71l-11.83,2.67-5.24-3.12a3.07,3.07,0,0,0-2-.39l-4.26.62a3,3,0,0,0-2.23,1.56l-1,1.74a3,3,0,0,0-.32,2l.33,2a3,3,0,0,0,2.27,2.45l7.19,1.78a3,3,0,0,0,1.71-.07l5-1.69,14.33-1.67Z" style="fill: rgb(255, 255, 255); opacity: 0.3; transform-origin: 326.219px 197.975px;" class="animable"></path></g><path d="M337.69,200.38a2.92,2.92,0,0,0,3.12,2.08c3.75-.39,10.82-1.84,15.91-7.11,7.25-7.5-2.81-36.1-6.75-43.25-4.4-8-11.22-9.15-11.22-9.15-8.78-3-7.53,5.15-5,15.15s12,24.5,12.25,27.25c.16,1.77-5.25,3.84-9.14,5.1a2.93,2.93,0,0,0-1.63,4.28A24.87,24.87,0,0,1,337.69,200.38Z" style="fill: rgb(64, 123, 255); transform-origin: 345.582px 172.399px;" id="elar0l19bmdu7" class="animable"></path><g id="el89mu087xcvx"><path d="M337.69,200.38a2.92,2.92,0,0,0,3.12,2.08c3.75-.39,10.82-1.84,15.91-7.11,7.25-7.5-2.81-36.1-6.75-43.25-4.4-8-11.22-9.15-11.22-9.15-8.78-3-7.53,5.15-5,15.15s12,24.5,12.25,27.25c.16,1.77-5.25,3.84-9.14,5.1a2.93,2.93,0,0,0-1.63,4.28A24.87,24.87,0,0,1,337.69,200.38Z" style="fill: rgb(255, 255, 255); opacity: 0.6; transform-origin: 345.582px 172.399px;" class="animable"></path></g><path d="M250.82,140.62h-4a2.2,2.2,0,0,0-2.19,2.2v0a2.19,2.19,0,0,0,1.18,1.94v35.35a2.52,2.52,0,0,0,2.52,2.52h1a2.52,2.52,0,0,0,2.52-2.52V144.79a2.19,2.19,0,0,0,1.18-1.94v0A2.2,2.2,0,0,0,250.82,140.62Z" style="fill: rgb(64, 123, 255); transform-origin: 248.83px 161.625px;" id="el4o7qjwkkzav" class="animable"></path><g id="elmtut2p52wq"><path d="M250.82,140.62h-4a2.2,2.2,0,0,0-2.19,2.2v0a2.19,2.19,0,0,0,1.18,1.94v35.35a2.52,2.52,0,0,0,2.52,2.52h1a2.52,2.52,0,0,0,2.52-2.52V144.79a2.19,2.19,0,0,0,1.18-1.94v0A2.2,2.2,0,0,0,250.82,140.62Z" style="fill: rgb(255, 255, 255); opacity: 0.6; transform-origin: 248.83px 161.625px;" class="animable"></path></g><path d="M245.45,141.1a10.19,10.19,0,0,0,6.72,0,2.2,2.2,0,0,0-1.35-.48h-4A2.2,2.2,0,0,0,245.45,141.1Z" style="fill: rgb(64, 123, 255); transform-origin: 248.81px 141.145px;" id="elrf259ijcizr" class="animable"></path><path d="M248.81,161.39c-1,0-1.88-.27-1.9-.6v19.35a1.4,1.4,0,0,0,1.4,1.4h1a1.4,1.4,0,0,0,1.4-1.4V160.79C250.69,161.12,249.85,161.39,248.81,161.39Z" style="fill: rgb(64, 123, 255); transform-origin: 248.81px 171.165px;" id="el3bu8v7bncta" class="animable"></path><path d="M250.71,160.78c0,.34-.85.61-1.9.61s-1.9-.27-1.9-.61.85-.61,1.9-.61S250.71,160.44,250.71,160.78Z" style="fill: rgb(64, 123, 255); transform-origin: 248.81px 160.78px;" id="el4nho0lsdlq9" class="animable"></path><g id="el1gvsy5k4v11"><path d="M250.71,160.78c0,.34-.85.61-1.9.61s-1.9-.27-1.9-.61.85-.61,1.9-.61S250.71,160.44,250.71,160.78Z" style="opacity: 0.3; transform-origin: 248.81px 160.78px;" class="animable"></path></g><g id="elyhodyvgogh"><g style="opacity: 0.8; transform-origin: 247.45px 162.55px;" class="animable"><path d="M246.89,145v35.1a.56.56,0,0,0,1.12,0V145a.56.56,0,0,0-1.12,0Z" style="fill: rgb(255, 255, 255); transform-origin: 247.45px 162.55px;" id="el5xk34os1ix7" class="animable"></path></g></g><path d="M307,124.77a6.09,6.09,0,0,0,3.9-2.81.23.23,0,0,0-.09-.29.21.21,0,0,0-.28.09,5.84,5.84,0,0,1-4.39,2.74.22.22,0,1,0,0,.43h0A7.43,7.43,0,0,0,307,124.77Z" style="fill: rgb(38, 50, 56); transform-origin: 308.397px 123.291px;" id="ellzuo9huvmx" class="animable"></path></g><g id="freepik--character-1--inject-11" class="animable" style="transform-origin: 174.162px 290.655px;"><path d="M121.24,235c-.66-.08-19.78,1.8-21,22.3l3.27,14.19h0a66.34,66.34,0,0,1,47.8.65l.22.09L150.17,256S145.3,237.79,121.24,235Z" style="fill: rgb(64, 123, 255); transform-origin: 125.885px 253.614px;" id="el8x1ok1269ko" class="animable"></path><path d="M161.39,333.93l-3.84.33a660.41,660.41,0,0,0-8.25-72.75,29.92,29.92,0,0,0-12.7-19.26,19.75,19.75,0,0,0-4.5-2.43,24.81,24.81,0,0,0-9.29-2h0v0h0a28.05,28.05,0,0,0-3.88.27,20.1,20.1,0,0,0-8.11,3.15,39.15,39.15,0,0,0-3.28,2.81,17.69,17.69,0,0,0-1.5,1.82,21.19,21.19,0,0,0-3.28,16.81,602.77,602.77,0,0,1,8.51,66.56l-3.84.26A599,599,0,0,0,99,263.45a25,25,0,0,1,3.93-19.87,23.24,23.24,0,0,1,17.23-9.71c15-1,30.61,11.19,32.92,26.83A666.75,666.75,0,0,1,161.39,333.93Z" style="fill: rgb(38, 50, 56); transform-origin: 129.889px 284.036px;" id="el3tmy4ro9ja8" class="animable"></path><g id="elukofovtty4"><path d="M161.39,333.93l-3.84.33a660.41,660.41,0,0,0-8.25-72.75,29.92,29.92,0,0,0-12.7-19.26,19.75,19.75,0,0,0-4.5-2.43,24.81,24.81,0,0,0-9.29-2v0h0a28.05,28.05,0,0,0-3.88.27,20.1,20.1,0,0,0-8.11,3.15,39.15,39.15,0,0,0-3.28,2.81,17.69,17.69,0,0,0-1.5,1.82,21.19,21.19,0,0,0-3.28,16.81,602.77,602.77,0,0,1,8.51,66.56l-3.84.26A599,599,0,0,0,99,263.45a25,25,0,0,1,3.93-19.87,23.24,23.24,0,0,1,17.23-9.71c15-1,30.61,11.19,32.92,26.83A666.75,666.75,0,0,1,161.39,333.93Z" style="fill: rgb(255, 255, 255); opacity: 0.3; transform-origin: 129.889px 284.036px;" class="animable"></path></g><path d="M114.67,322.22h73.67a7.33,7.33,0,0,1,7.33,7.33v2.05a0,0,0,0,1,0,0H107.34a0,0,0,0,1,0,0v-2.05A7.33,7.33,0,0,1,114.67,322.22Z" style="fill: rgb(64, 123, 255); transform-origin: 151.505px 326.91px;" id="eltpb923ahdun" class="animable"></path><polygon points="110.33 408.77 105.63 408.77 109.47 331.61 115.45 331.61 110.33 408.77" style="fill: rgb(38, 50, 56); transform-origin: 110.54px 370.19px;" id="elavc7abq6qxs" class="animable"></polygon><g id="el0orobqgg38ep"><polygon points="110.33 408.77 105.63 408.77 109.47 331.61 115.45 331.61 110.33 408.77" style="fill: rgb(255, 255, 255); opacity: 0.3; transform-origin: 110.54px 370.19px;" class="animable"></polygon></g><polygon points="141.69 408.77 137 408.77 139.56 331.61 145.53 331.61 141.69 408.77" style="fill: rgb(38, 50, 56); transform-origin: 141.265px 370.19px;" id="elaytfbhmczx8" class="animable"></polygon><g id="elc4c489zzjl"><polygon points="141.69 408.77 137 408.77 139.56 331.61 145.53 331.61 141.69 408.77" style="fill: rgb(255, 255, 255); opacity: 0.3; transform-origin: 141.265px 370.19px;" class="animable"></polygon></g><polygon points="166.02 408.77 161.32 408.77 157.48 331.61 163.46 331.61 166.02 408.77" style="fill: rgb(38, 50, 56); transform-origin: 161.75px 370.19px;" id="el74vmiok9cfs" class="animable"></polygon><g id="el95hrgj6jivf"><polygon points="166.02 408.77 161.32 408.77 157.48 331.61 163.46 331.61 166.02 408.77" style="fill: rgb(255, 255, 255); opacity: 0.3; transform-origin: 161.75px 370.19px;" class="animable"></polygon></g><polygon points="197.38 408.77 192.69 408.77 187.57 331.61 193.54 331.61 197.38 408.77" style="fill: rgb(38, 50, 56); transform-origin: 192.475px 370.19px;" id="elgl2v68fss3c" class="animable"></polygon><g id="elxg4bnzhunt"><polygon points="197.38 408.77 192.69 408.77 187.57 331.61 193.54 331.61 197.38 408.77" style="fill: rgb(255, 255, 255); opacity: 0.3; transform-origin: 192.475px 370.19px;" class="animable"></polygon></g><rect x="147.03" y="328.2" width="52.49" height="6.83" style="fill: rgb(64, 123, 255); transform-origin: 173.275px 331.615px;" id="elfwswgpn5yq4" class="animable"></rect><g id="elrvo963ersc"><rect x="147.03" y="328.2" width="52.49" height="6.83" style="fill: rgb(255, 255, 255); opacity: 0.7; transform-origin: 173.275px 331.615px;" class="animable"></rect></g><rect x="103.48" y="328.2" width="43.55" height="6.83" style="fill: rgb(64, 123, 255); transform-origin: 125.255px 331.615px;" id="elw0gous3mtpb" class="animable"></rect><g id="elcnn6xeqb9t"><rect x="103.48" y="328.2" width="43.55" height="6.83" style="fill: rgb(255, 255, 255); opacity: 0.4; transform-origin: 125.255px 331.615px;" class="animable"></rect></g><g id="freepik--Character--inject-2--inject-11" class="animable" style="transform-origin: 185.896px 290.655px;"><polygon points="226.3 401.75 234.74 400.81 237.19 380.73 225.76 382.12 226.3 401.75" style="fill: rgb(255, 181, 115); transform-origin: 231.475px 391.24px;" id="el0n3mwy4v8duf" class="animable"></polygon><path d="M235.43,398.11l-9.89-.79a.64.64,0,0,0-.73.51v.06l-1.12,7.78a1.58,1.58,0,0,0,1.43,1.69c3.44.21,4.89.15,9.25.19,2.69,0,9.1,0,12.79-.4s3.15-4.06,1.55-4.2c-3.79-.34-9.51-2-11.84-4.15A2.53,2.53,0,0,0,235.43,398.11Z" style="fill: rgb(38, 50, 56); transform-origin: 236.811px 402.431px;" id="elxttt9pxibil" class="animable"></path><g id="elas5xjaccrp"><polygon points="225.76 382.14 237.19 380.73 235.82 391.92 226.05 391.97 225.76 382.14" style="opacity: 0.2; isolation: isolate; transform-origin: 231.475px 386.35px;" class="animable"></polygon></g><path d="M171.54,286.38s67,1.32,69.7,26.5a471.63,471.63,0,0,1-3.59,70.42l-12.52,1.57s-6.68-43.81-4.21-65c-18.25-3.29-69,2.16-75.83-12.08-5.61-11.62-3.94-18.5-3.94-18.5Z" style="fill: rgb(38, 50, 56); transform-origin: 191.146px 335.625px;" id="elyts0jipagj" class="animable"></path><path d="M240.12,399.56a1.12,1.12,0,0,0,.34-1.08.77.77,0,0,0-.43-.62c-1.06-.53-3.67,1-4,1.16a.2.2,0,0,0,0,.37,10.23,10.23,0,0,0,2.32.51A2.42,2.42,0,0,0,240.12,399.56Zm-.26-1.34a.35.35,0,0,1,.19.32.72.72,0,0,1-.2.71c-.45.38-1.61.34-3.16-.1C237.76,398.58,239.29,398,239.86,398.22Z" style="fill: rgb(64, 123, 255); transform-origin: 238.197px 398.847px;" id="elmt7z80k2c5s" class="animable"></path><path d="M236.29,399.36c.91-.46,2.38-2.17,2.25-3.16a.79.79,0,0,0-.69-.67,1,1,0,0,0-.93.23c-.95.79-1,3.33-1,3.44a.22.22,0,0,0,.1.18l.09,0Zm1.42-3.44c.3.06.35.21.37.33.09.64-.9,2-1.72,2.55,0-.84.23-2.28.8-2.75a.6.6,0,0,1,.46-.14S237.7,396,237.71,395.92Z" style="fill: rgb(64, 123, 255); transform-origin: 237.234px 397.439px;" id="el3re3rn518ie" class="animable"></path><g id="elz4fmid57ak"><path d="M222.63,365.34c2.71-11.32,9.63-49.3,7.73-56-2.42-8.61-37.66-12.3-37.66-12.3s12.27,5.37,20.93,22.11a72.83,72.83,0,0,1,7,21.27A101.69,101.69,0,0,1,222,359.31Z" style="opacity: 0.3; isolation: isolate; transform-origin: 211.693px 331.19px;" class="animable"></path></g><polygon points="205.95 401.14 214.51 401.39 217.17 381.33 205.01 380.83 205.95 401.14" style="fill: rgb(255, 181, 115); transform-origin: 211.09px 391.11px;" id="elkyk6nlan5vj" class="animable"></polygon><path d="M214.83,398.85l-9.91-.05a.64.64,0,0,0-.67.6l-.52,7.84a1.57,1.57,0,0,0,1.54,1.59c3.45-.1,5.11-.24,9.47-.26,2.68,0,8,.27,11.62-.3s3-4.17,1.41-4.26c-3.79-.21-8.94-2.69-11.43-4.66A2.49,2.49,0,0,0,214.83,398.85Z" style="fill: rgb(38, 50, 56); transform-origin: 216.38px 403.815px;" id="elo29w7q7kn0h" class="animable"></path><path d="M219.61,399.94a1.13,1.13,0,0,0,.26-1.11.82.82,0,0,0-.48-.59c-1.07-.45-3.58,1.28-3.86,1.47a.2.2,0,0,0-.08.13.2.2,0,0,0,.15.24,11,11,0,0,0,2.35.32A2.3,2.3,0,0,0,219.61,399.94Zm-.36-1.3a.35.35,0,0,1,.23.28.77.77,0,0,1-.16.74c-.38.4-1.57.44-3.15.13C217.2,399.13,218.67,398.4,219.25,398.64Z" style="fill: rgb(64, 123, 255); transform-origin: 217.682px 399.29px;" id="elffae5a3d0xt" class="animable"></path><path d="M215.8,400.08c.88-.52,2.21-2.4,2-3.31a.8.8,0,0,0-.75-.63,1,1,0,0,0-.91.28c-.9.86-.71,3.4-.7,3.51a.18.18,0,0,0,.1.16.14.14,0,0,0,.09,0A.29.29,0,0,0,215.8,400.08ZM217,396.5c.3,0,.38.19.39.31.13.63-.75,2-1.53,2.66,0-.82.06-2.27.6-2.78a.59.59,0,0,1,.44-.18Z" style="fill: rgb(64, 123, 255); transform-origin: 216.619px 398.109px;" id="eljsr2b2ruz2" class="animable"></path><g id="el8j7cmekm3v8"><polygon points="203.91 380.48 217.89 379.13 215.64 392.82 205.57 392.92 203.91 380.48" style="opacity: 0.2; isolation: isolate; transform-origin: 210.9px 386.025px;" class="animable"></polygon></g><path d="M158.36,287.47S224,297,223.5,316.17c2,23.23-5.28,71.73-5.28,71.73l-14.94.18s-5.07-36.25-4.27-64.69c-16.33,1.59-58.42-1.17-60.7-4.56-9.68-10-5.5-28.83-5.5-28.83Z" style="fill: rgb(38, 50, 56); transform-origin: 177.88px 337.775px;" id="el72ybkobnt4x" class="animable"></path><polygon points="202 389.43 218.79 389.29 220.39 381.32 201.09 381.46 202 389.43" style="fill: rgb(64, 123, 255); transform-origin: 210.74px 385.375px;" id="elhzvib0i69rr" class="animable"></polygon><path d="M167,230.47c.27,1.53.52,2.85.83,4.25s.62,2.72,1,4.13c.7,2.71,1.52,5.4,2.43,8.16a66.28,66.28,0,0,0,7.67,16.12,30,30,0,0,0,3.25,3.94,19.47,19.47,0,0,0,4.54,3.47A21,21,0,0,0,197.14,273a29.63,29.63,0,0,0,9.35-1.83,39.84,39.84,0,0,0,4.14-1.8,17.14,17.14,0,0,0,2-1.11c.64-.43,1.23-.78,2-1.27l-3-5.9-1.73.39-1.82.36c-1.22.22-2.43.41-3.65.52a25.39,25.39,0,0,1-6.69-.11,10,10,0,0,1-6.6-3.61,21.75,21.75,0,0,1-1.71-2.47,42.72,42.72,0,0,1-3-6.29c-.92-2.25-1.71-4.63-2.46-7.06s-1.4-4.89-2.06-7.37l-.91-3.75c-.29-1.23-.6-2.55-.82-3.62Z" style="fill: rgb(255, 181, 115); transform-origin: 190.815px 250.544px;" id="el52n6nph5rgv" class="animable"></path><g id="elou7ra829wts"><path d="M174,235.11c-1.58-1.17-5.16,5.13-7,12.65,1,2.68,2.06,5.25,3.13,7.66l12.05-3.74C180.49,244.51,177.55,237.74,174,235.11Z" style="opacity: 0.2; isolation: isolate; transform-origin: 174.59px 245.195px;" class="animable"></path></g><path d="M212.65,258.18l4.42-2.19,1.15,9.71s-7.38,4.08-9.32.41l.31-2.49A8,8,0,0,1,212.65,258.18Z" style="fill: rgb(255, 181, 115); transform-origin: 213.56px 261.816px;" id="elevnbrps6mwh" class="animable"></path><polygon points="222.51 255.72 226.01 263.62 218.18 265.7 217.03 255.99 222.51 255.72" style="fill: rgb(255, 181, 115); transform-origin: 221.52px 260.71px;" id="elo3r0i5s1k4k" class="animable"></polygon><path d="M181.64,224.9a57.35,57.35,0,0,1-4.56,23.52c1.74,3.38,1.71,7.18,2.77,10.83s2.32,7.31,4.66,10.3,5.94,5.22,9.73,5a22.93,22.93,0,0,1-.34-7.48,8.81,8.81,0,0,1,3.8-6.73,28.54,28.54,0,0,1-5.21-4.79s-4.11-17.88-7-26.68C184.84,227,183.59,225.13,181.64,224.9Z" style="fill: rgb(64, 123, 255); transform-origin: 187.39px 249.732px;" id="elej3bqy9s2n" class="animable"></path><g id="el7ngf8k2wqgq"><path d="M181.64,224.9a57.35,57.35,0,0,1-4.56,23.52c1.74,3.38,1.71,7.18,2.77,10.83s2.32,7.31,4.66,10.3,5.94,5.22,9.73,5a22.93,22.93,0,0,1-.34-7.48,8.81,8.81,0,0,1,3.8-6.73,28.54,28.54,0,0,1-5.21-4.79s-4.11-17.88-7-26.68C184.84,227,183.59,225.13,181.64,224.9Z" style="fill: rgb(255, 255, 255); opacity: 0.8; transform-origin: 187.39px 249.732px;" class="animable"></path></g><path d="M166.32,216.67l-10.06-1.8-12.65.64a8.77,8.77,0,0,0-8.13,6.86c-1.68,7.58-2.84,18.36-3.58,27.66-.83,10.44-.25,26,.91,40l42.29-3.52c1.78-36.72,5-48,5.68-57.72a8.73,8.73,0,0,0-5.75-8.88Z" style="fill: rgb(64, 123, 255); transform-origin: 156.157px 252.45px;" id="eltfo2ujisnb" class="animable"></path><path d="M166.32,216.67l-10.06-1.8-12.65.64a8.77,8.77,0,0,0-8.13,6.86c-1.68,7.58-2.84,18.36-3.58,27.66-.83,10.44-.25,26,.91,40l42.29-3.52c1.78-36.72,5-48,5.68-57.72a8.73,8.73,0,0,0-5.75-8.88Z" style="fill: rgb(64, 123, 255); transform-origin: 156.157px 252.45px;" id="elrdkgnuuvsc" class="animable"></path><g id="eltka8ugy45uj"><path d="M139.71,219.06c8.45-1.16,7.32,17.89,3,31.7-1.26,4-6,2.13-7.55,1C130,248.13,129.05,224.76,139.71,219.06Z" style="opacity: 0.3; isolation: isolate; transform-origin: 138.725px 236.103px;" class="animable"></path></g><path d="M172.28,217.46c6.08,8.17,5.21,31-.33,68.92,0,0,17,3,20.54,4.87a64.14,64.14,0,0,1,11.14-.74c-5.57-5.65-16-7.66-24-7.87,2.92-23.77,6.88-37.19,4.29-55.17C183.23,222.41,177.13,219.09,172.28,217.46Z" style="fill: rgb(64, 123, 255); transform-origin: 187.79px 254.355px;" id="el7mk9ytcsrce" class="animable"></path><path d="M147.59,215.4a22.1,22.1,0,0,1,27.87,3.92C166.33,217.68,156.86,215.9,147.59,215.4Z" style="fill: rgb(64, 123, 255); transform-origin: 161.525px 215.727px;" id="el3eb2z7bva6i" class="animable"></path><g id="el4rjmkc625cl"><path d="M147.59,215.4a22.1,22.1,0,0,1,27.87,3.92C166.33,217.68,156.86,215.9,147.59,215.4Z" style="fill: rgb(255, 255, 255); opacity: 0.8; transform-origin: 161.525px 215.727px;" class="animable"></path></g><g id="elawekh9zkbig"><g style="opacity: 0.8; transform-origin: 187.79px 254.355px;" class="animable"><path d="M172.28,217.46c6.08,8.17,5.21,31-.33,68.92,0,0,17,3,20.54,4.87a64.14,64.14,0,0,1,11.14-.74c-5.57-5.65-16-7.66-24-7.87,2.92-23.77,6.88-37.19,4.29-55.17C183.23,222.41,177.13,219.09,172.28,217.46Z" style="fill: rgb(255, 255, 255); transform-origin: 187.79px 254.355px;" id="elg0mr3ost5k" class="animable"></path></g></g><path d="M134.47,316.16a8.93,8.93,0,0,1,1.87-5.69,46.08,46.08,0,0,1,4.08-4.54c3.85-4.11,8-9.33,9.52-14.75,3.85-13.71,5.81-28.1,6.94-42.3A72.87,72.87,0,0,0,150.69,214l-12.83,1.14c-1.92.18-3.47,1.93-4.46,3.58,3.78,15.43,3,32.06-1.24,47.37-2.19,7.88-5.42,15.45-7.69,23.31s-3.56,16.24-1.78,24.23c.78,3.51,3.67,7,6.37,9.41,1.93,1.7,5.29,1.09,7.86,1.11a7.51,7.51,0,0,1-3.13-8.38C133.89,315.6,134.49,316.38,134.47,316.16Z" style="fill: rgb(64, 123, 255); transform-origin: 139.457px 269.12px;" id="elcr6e2mtz8b" class="animable"></path><g id="elwf2sb725xkk"><path d="M134.47,316.16a8.93,8.93,0,0,1,1.87-5.69,46.08,46.08,0,0,1,4.08-4.54c3.85-4.11,8-9.33,9.52-14.75,3.85-13.71,5.81-28.1,6.94-42.3A72.87,72.87,0,0,0,150.69,214l-12.83,1.14c-1.92.18-3.47,1.93-4.46,3.58,3.78,15.43,3,32.06-1.24,47.37-2.19,7.88-5.42,15.45-7.69,23.31s-3.56,16.24-1.78,24.23c.78,3.51,3.67,7,6.37,9.41,1.93,1.7,5.29,1.09,7.86,1.11a7.51,7.51,0,0,1-3.13-8.38C133.89,315.6,134.49,316.38,134.47,316.16Z" style="fill: rgb(255, 255, 255); opacity: 0.8; transform-origin: 139.457px 269.12px;" class="animable"></path></g><path d="M145.46,248c2.92,7.73,1.8,12.66,6.84,13.88s32.43,1.16,32.69-.07c-.56,2.29-1.18,4.29-1.74,6.57q-11.19,2-22.32,4.18c-5.42,1.07-14.24,2.53-19.41.6-4.68-1.74-8.39-15-10.91-24.66C133.28,245.41,145.46,248,145.46,248Z" style="fill: rgb(255, 181, 115); transform-origin: 157.8px 260.543px;" id="elb4knpx9gmk6" class="animable"></path><path d="M151.77,216.63a7.43,7.43,0,0,0,1.11,5.23,22.15,22.15,0,0,0,3.55,4.13c1.65,1.63,3.62,3.38,5.93,3.16,2.13-.2,3.39-1.22,4.33-3.71,1.71,3,1.74,4.45,3.73,4.71,1.29.17,2.45-.74,3.39-1.63,1.66-1.59,2.41-2.5,2.79-4.77.62-3.68-2.26-7.23-5.71-8.66A43.65,43.65,0,0,0,160,212.5C156.73,212,152.57,212.87,151.77,216.63Z" style="fill: rgb(64, 123, 255); transform-origin: 164.18px 221.271px;" id="elau2v633xjjp" class="animable"></path><g id="el597e748wqbq"><path d="M151.77,216.63a7.43,7.43,0,0,0,1.11,5.23,22.15,22.15,0,0,0,3.55,4.13c1.65,1.63,3.62,3.38,5.93,3.16,2.13-.2,3.39-1.22,4.33-3.71,1.71,3,1.74,4.45,3.73,4.71,1.29.17,2.45-.74,3.39-1.63,1.66-1.59,2.41-2.5,2.79-4.77.62-3.68-2.26-7.23-5.71-8.66A43.65,43.65,0,0,0,160,212.5C156.73,212,152.57,212.87,151.77,216.63Z" style="opacity: 0.2; transform-origin: 164.18px 221.271px;" class="animable"></path></g><path d="M187.2,187.35s3.5-9.78-6.15-8.41Z" style="fill: rgb(38, 50, 56); transform-origin: 184.434px 183.079px;" id="elsjq2dpts56" class="animable"></path><g id="el0gjzl1i9jjyp"><path d="M187.2,187.35s3.5-9.78-6.15-8.41Z" style="fill: rgb(255, 255, 255); opacity: 0.7; transform-origin: 184.434px 183.079px;" class="animable"></path></g><path d="M172.12,221.32l-3.83,2.18-4.56-1.09-6.07-4.94a2,2,0,0,1,.23-.28c3.83-4.15,5.1-13.53,5.39-19.05l8.93,12.57C170.41,214.09,169.5,218.15,172.12,221.32Z" style="fill: rgb(255, 181, 115); transform-origin: 164.935px 210.82px;" id="eld1qljohbtbj" class="animable"></path><path d="M163,187.78c-1,8.72-2,13.77,1.51,19,5.35,7.84,16.72,5.77,20.31-2.45,3.26-7.46,4.36-20.43-3.47-25.38a12,12,0,0,0-16.53,3.64A12.09,12.09,0,0,0,163,187.78Z" style="fill: rgb(255, 181, 115); transform-origin: 174.675px 194.387px;" id="elyydtcg6rwo8" class="animable"></path><path d="M188.42,188.43c.15-.63.12-2.08-1.51-1.87,0,0-.95-1.87-2.37-.63,0,0-1.78-.41-2,.78-.26,1.52,1.34.61,3.05,1.42S188.14,189.49,188.42,188.43Z" style="fill: rgb(38, 50, 56); transform-origin: 185.495px 187.261px;" id="elyd26wqrbcbp" class="animable"></path><g id="eldk3q5qvz1q4"><path d="M188.42,188.43c.15-.63.12-2.08-1.51-1.87,0,0-.95-1.87-2.37-.63,0,0-1.78-.41-2,.78-.26,1.52,1.34.61,3.05,1.42S188.14,189.49,188.42,188.43Z" style="fill: rgb(255, 255, 255); opacity: 0.6; transform-origin: 185.495px 187.261px;" class="animable"></path></g><path d="M174.38,185.77c.11-.63.74-1.94,2.13-1.09,0,0,1.64-1.31,2.42.41,0,0,1.79.35,1.49,1.51-.39,1.5-1.47,0-3.36.05S174.19,186.85,174.38,185.77Z" style="fill: rgb(38, 50, 56); transform-origin: 177.405px 185.736px;" id="elo4pm9q5z86c" class="animable"></path><g id="elp0mmkia8pv"><path d="M174.38,185.77c.11-.63.74-1.94,2.13-1.09,0,0,1.64-1.31,2.42.41,0,0,1.79.35,1.49,1.51-.39,1.5-1.47,0-3.36.05S174.19,186.85,174.38,185.77Z" style="fill: rgb(255, 255, 255); opacity: 0.6; transform-origin: 177.405px 185.736px;" class="animable"></path></g><path d="M166.83,193.51s2.74-5.54,1.84-8.35,10.72-3,10.28-7.43-8.54-7.25-10.88-3.52a6.45,6.45,0,0,0-5.66,7.9s-3.81,3.32-.32,9.45l3.12,2.92Z" style="fill: rgb(38, 50, 56); transform-origin: 169.79px 183.48px;" id="elcrab7al25sv" class="animable"></path><g id="elp7il0ebpko"><path d="M166.83,193.51s2.74-5.54,1.84-8.35,10.72-3,10.28-7.43-8.54-7.25-10.88-3.52a6.45,6.45,0,0,0-5.66,7.9s-3.81,3.32-.32,9.45l3.12,2.92Z" style="fill: rgb(255, 255, 255); opacity: 0.7; transform-origin: 169.79px 183.48px;" class="animable"></path></g><path d="M185.35,203.5s-5.38-3.75-14.46-3.82c0,0-2.82-.41-3.44-4.23l-.44-2.66-2.11.25-3.08,6.57s-.1,7.47,1.9,8.29c0,0,1.47,4.08,5.54,4.16,0,0,1.35,3.18,6.41.85,0,0,2.26.56,5-2.82C180.69,210.09,183.05,210,185.35,203.5Z" style="fill: rgb(38, 50, 56); transform-origin: 173.585px 203.277px;" id="elo0e6rfi78bo" class="animable"></path><g id="el7crs25oh59w"><path d="M185.35,203.5s-5.38-3.75-14.46-3.82c0,0-2.82-.41-3.44-4.23l-.44-2.66-2.11.25-3.08,6.57s-.1,7.47,1.9,8.29c0,0,1.47,4.08,5.54,4.16,0,0,1.35,3.18,6.41.85,0,0,2.26.56,5-2.82C180.69,210.09,183.05,210,185.35,203.5Z" style="fill: rgb(255, 255, 255); opacity: 0.7; transform-origin: 173.585px 203.277px;" class="animable"></path></g><path d="M174.07,204.45a6.09,6.09,0,0,1-3.9-2.81.22.22,0,0,1,.09-.29.21.21,0,0,1,.28.09,5.84,5.84,0,0,0,4.39,2.74.22.22,0,0,1,0,.43h0A5.64,5.64,0,0,1,174.07,204.45Z" style="fill: rgb(38, 50, 56); transform-origin: 172.625px 202.969px;" id="el8mp1vpmklv7" class="animable"></path><path d="M181,193.86a25.44,25.44,0,0,0,2.28,6.6,4.13,4.13,0,0,1-3.47,0Z" style="fill: rgb(237, 137, 62); transform-origin: 181.545px 197.351px;" id="elf1o898z4oaj" class="animable"></path><path d="M181.78,191.91a3.67,3.67,0,1,0,4.78-2A3.66,3.66,0,0,0,181.78,191.91Z" style="fill: rgb(64, 123, 255); transform-origin: 185.173px 193.306px;" id="el0y8pqnjtx73" class="animable"></path><path d="M172.39,190.48a3.67,3.67,0,1,0,4.78-2A3.66,3.66,0,0,0,172.39,190.48Z" style="fill: rgb(64, 123, 255); transform-origin: 175.783px 191.876px;" id="elkeefbs3gjca" class="animable"></path><g id="ele3uwca3jk67"><path d="M181.78,191.91a3.67,3.67,0,1,0,4.78-2A3.66,3.66,0,0,0,181.78,191.91Z" style="fill: rgb(255, 255, 255); opacity: 0.6; transform-origin: 185.173px 193.306px;" class="animable"></path></g><g id="eltfxpkfa0kx"><path d="M172.39,190.48a3.67,3.67,0,1,0,4.78-2A3.66,3.66,0,0,0,172.39,190.48Z" style="fill: rgb(255, 255, 255); opacity: 0.6; transform-origin: 175.783px 191.876px;" class="animable"></path></g><g id="eldkqwdrp8ri"><path d="M186.29,196.77a3.64,3.64,0,0,1-4.51-4.86,3.6,3.6,0,0,1,1.71-1.85Z" style="fill: rgb(255, 255, 255); opacity: 0.9; transform-origin: 183.893px 193.509px;" class="animable"></path></g><g id="eld0p23atwoqb"><path d="M177.15,195.27a3.66,3.66,0,0,1-2.82-6.76Z" style="fill: rgb(255, 255, 255); opacity: 0.9; transform-origin: 174.615px 192.031px;" class="animable"></path></g><path d="M181.49,191.79a4,4,0,1,1,2.16,5.19A4,4,0,0,1,181.49,191.79Zm.58.24a3.35,3.35,0,1,0,4.37-1.83A3.34,3.34,0,0,0,182.07,192Z" style="fill: rgb(38, 50, 56); transform-origin: 185.198px 193.291px;" id="elmadgza45mh" class="animable"></path><path d="M172.1,190.36a4,4,0,1,1,2.17,5.19A4,4,0,0,1,172.1,190.36Zm.58.24a3.35,3.35,0,1,0,4.37-1.83A3.35,3.35,0,0,0,172.68,190.6Z" style="fill: rgb(38, 50, 56); transform-origin: 175.809px 191.858px;" id="elccao5nrezeo" class="animable"></path><path d="M179.74,192.54a1.09,1.09,0,0,1,1.59.17l.51-.35a1.69,1.69,0,0,0-2.43-.35Z" style="fill: rgb(38, 50, 56); transform-origin: 180.625px 192.177px;" id="ely246ame7bk" class="animable"></path><g id="ellrje64j3dk"><rect x="163.91" y="192" width="8.23" height="0.62" style="fill: rgb(38, 50, 56); transform-origin: 168.025px 192.31px; transform: rotate(-5.85deg);" class="animable"></rect></g><path d="M157.36,195.07a8.37,8.37,0,0,0,4.46,4.54c2.71,1.11,4.41-1.21,4-4-.41-2.45-2.32-6-5.17-6S156.36,192.54,157.36,195.07Z" style="fill: rgb(255, 181, 115); transform-origin: 161.462px 194.752px;" id="eluty0s14g6" class="animable"></path><path d="M200.46,261.24a3.63,3.63,0,0,0-3.85-2.49,6.22,6.22,0,0,0-4.14,2.53,9.94,9.94,0,0,0-1.37,9.7,7.28,7.28,0,0,0,4.43,4.35,4.84,4.84,0,0,0,5.56-2.06c-2.24-2.78-2.42-7.55-.63-10.64A5.39,5.39,0,0,0,200.46,261.24Z" style="fill: rgb(64, 123, 255); transform-origin: 195.75px 267.14px;" id="elyv5kmyfnzy9" class="animable"></path><g id="elo2zyf7rik6"><path d="M200.46,261.24a3.63,3.63,0,0,0-3.85-2.49,6.22,6.22,0,0,0-4.14,2.53,9.94,9.94,0,0,0-1.37,9.7,7.28,7.28,0,0,0,4.43,4.35,4.84,4.84,0,0,0,5.56-2.06c-2.24-2.78-2.42-7.55-.63-10.64A5.39,5.39,0,0,0,200.46,261.24Z" style="fill: rgb(255, 255, 255); opacity: 0.6; transform-origin: 195.75px 267.14px;" class="animable"></path></g></g><path d="M186.37,260l4.48-1.13-.81,10.9s-7.86.74-8.37-1.5l-.45-3.39C180.64,261.81,183.91,260.52,186.37,260Z" style="fill: rgb(255, 181, 115); transform-origin: 186.001px 264.379px;" id="elmo3rx6n933s" class="animable"></path><polygon points="197.37 262.15 195.83 268.23 190.03 269.76 190.85 258.87 197.37 262.15" style="fill: rgb(255, 181, 115); transform-origin: 193.7px 264.315px;" id="el3fux9fx2u0s" class="animable"></polygon><polygon points="223.62 389.14 237.78 389.19 239.56 382.24 223.38 381.87 223.62 389.14" style="fill: rgb(64, 123, 255); transform-origin: 231.47px 385.53px;" id="elo3dywe7sj08" class="animable"></polygon><path d="M137.92,215.75c-21.19,7.84-6.45,49.71-.4,60.37a28.69,28.69,0,0,0,23.32-.78c-1.51-4.83-2-10.87-.31-15.65-3.16-.56-7.38-1.08-10.54-1.64,0,0-2-14.05-2.42-23.91C147.25,226.33,145.1,216.78,137.92,215.75Z" style="fill: rgb(64, 123, 255); transform-origin: 143.858px 246.987px;" id="elp5a22o0pcbd" class="animable"></path><g id="eldcrazsel47v"><path d="M137.92,215.75c-21.19,7.84-6.45,49.71-.4,60.37a28.69,28.69,0,0,0,23.32-.78c-1.51-4.83-2-10.87-.31-15.65-3.16-.56-7.38-1.08-10.54-1.64,0,0-2-14.05-2.42-23.91C147.25,226.33,145.1,216.78,137.92,215.75Z" style="fill: rgb(255, 255, 255); opacity: 0.8; transform-origin: 143.858px 246.987px;" class="animable"></path></g><path d="M159.52,259.14a21.23,21.23,0,0,0-2.17,8.81,10.51,10.51,0,0,0,3.55,8.1,6,6,0,0,1,3.83-1.08c.83,0,1.3,0,2.13,0a73.91,73.91,0,0,1,0-14.11,10.72,10.72,0,0,0-4.3.14C162.82,259.72,160.83,258.89,159.52,259.14Z" style="fill: rgb(64, 123, 255); transform-origin: 162.104px 267.573px;" id="eldpf5cvgihim" class="animable"></path><g id="elhduj2mpt5tn"><path d="M159.52,259.14a21.23,21.23,0,0,0-2.17,8.81,10.51,10.51,0,0,0,3.55,8.1,6,6,0,0,1,3.83-1.08c.83,0,1.3,0,2.13,0a73.91,73.91,0,0,1,0-14.11,10.72,10.72,0,0,0-4.3.14C162.82,259.72,160.83,258.89,159.52,259.14Z" style="fill: rgb(255, 255, 255); opacity: 0.6; transform-origin: 162.104px 267.573px;" class="animable"></path></g></g><g id="freepik--Desk--inject-11" class="animable" style="transform-origin: 265.815px 305.351px;"><g id="elvyyslfro4ek"><path d="M266.64,199.31h1.72a1.87,1.87,0,0,1,1.87,1.87v17.89a0,0,0,0,1,0,0h-5.46a0,0,0,0,1,0,0V201.18A1.87,1.87,0,0,1,266.64,199.31Z" style="fill: rgb(38, 50, 56); transform-origin: 267.5px 209.19px; transform: rotate(26.82deg);" class="animable"></path></g><g id="elnldstet15y9"><path d="M266.64,199.31h1.72a1.87,1.87,0,0,1,1.87,1.87v17.89a0,0,0,0,1,0,0h-5.46a0,0,0,0,1,0,0V201.18A1.87,1.87,0,0,1,266.64,199.31Z" style="fill: rgb(255, 255, 255); opacity: 0.3; transform-origin: 267.5px 209.19px; transform: rotate(26.82deg);" class="animable"></path></g><rect x="264.96" y="221.03" width="5.08" height="49.47" style="fill: rgb(64, 123, 255); transform-origin: 267.5px 245.765px;" id="elf5ar45ltu" class="animable"></rect><rect x="251.33" y="221.03" width="5.08" height="5.58" style="fill: rgb(64, 123, 255); transform-origin: 253.87px 223.82px;" id="el8pb7rjl6vox" class="animable"></rect><g id="el8jb0hbsay2n"><rect x="264.96" y="221.03" width="5.08" height="49.47" style="opacity: 0.2; transform-origin: 267.5px 245.765px;" class="animable"></rect></g><g id="el6narmjns53q"><rect x="251.33" y="221.03" width="5.08" height="5.58" style="opacity: 0.2; transform-origin: 253.87px 223.82px;" class="animable"></rect></g><rect x="254.13" y="212.86" width="4.06" height="8.17" style="fill: rgb(64, 123, 255); transform-origin: 256.16px 216.945px;" id="elzgl0t13vh2o" class="animable"></rect><g id="eln2y9ionybl"><rect x="254.13" y="212.86" width="4.06" height="8.17" style="opacity: 0.1; transform-origin: 256.16px 216.945px;" class="animable"></rect></g><path d="M276.38,221H258.19v-8.17l16.14,3.46a2.59,2.59,0,0,1,2.05,2.54Z" style="fill: rgb(64, 123, 255); transform-origin: 267.285px 216.915px;" id="elo4lugh1cm4n" class="animable"></path><g id="elw3f4alatqzl"><path d="M276.38,221H258.19v-8.17l16.14,3.46a2.59,2.59,0,0,1,2.05,2.54Z" style="fill: rgb(255, 255, 255); opacity: 0.2; transform-origin: 267.285px 216.915px;" class="animable"></path></g><path d="M257.22,229.86l-5.79-2.71a.28.28,0,0,1,.12-.54h13.27a.28.28,0,0,1,.12.54l-5.78,2.71A2.27,2.27,0,0,1,257.22,229.86Z" style="fill: rgb(38, 50, 56); transform-origin: 258.185px 228.344px;" id="elhbd2mmqa12p" class="animable"></path><g id="elxhhpsgbbfxc"><rect x="254.35" y="230.06" width="7.67" height="5.19" rx="2.14" style="fill: rgb(38, 50, 56); transform-origin: 258.185px 232.655px; transform: rotate(-90deg);" class="animable"></rect></g><g id="elpt2f2k17hmi"><rect x="254.35" y="230.06" width="7.67" height="5.19" rx="2.14" style="fill: rgb(255, 255, 255); opacity: 0.6; transform-origin: 258.185px 232.655px; transform: rotate(-90deg);" class="animable"></rect></g><g id="eldnoaxtr0mt9"><rect x="248.9" y="228.95" width="7.67" height="5.19" rx="2.14" style="fill: rgb(38, 50, 56); transform-origin: 252.735px 231.545px; transform: rotate(-67.5deg);" class="animable"></rect></g><g id="elt3o18319vsm"><rect x="259.8" y="228.95" width="7.67" height="5.19" rx="2.14" style="fill: rgb(38, 50, 56); transform-origin: 263.635px 231.545px; transform: rotate(-112.5deg);" class="animable"></rect></g><g id="elzsqp1xpajn"><g style="opacity: 0.3; transform-origin: 258.185px 231.545px;" class="animable"><g id="ell04drupojm"><rect x="248.9" y="228.95" width="7.67" height="5.19" rx="2.14" style="fill: rgb(255, 255, 255); transform-origin: 252.735px 231.545px; transform: rotate(-67.5deg);" class="animable"></rect></g><g id="eltoy7gjap2ws"><rect x="259.8" y="228.95" width="7.67" height="5.19" rx="2.14" style="fill: rgb(255, 255, 255); transform-origin: 263.635px 231.545px; transform: rotate(-112.5deg);" class="animable"></rect></g></g></g><path d="M270,270.5h17.18a2.35,2.35,0,0,0,2.29-2.85l-10-44.72a2.42,2.42,0,0,0-2.37-1.9H256.41v5.58H270Z" style="fill: rgb(64, 123, 255); transform-origin: 272.967px 245.765px;" id="elqudfrp9mi8m" class="animable"></path><g id="elb09hno63yp4"><path d="M270,270.5h17.18a2.35,2.35,0,0,0,2.29-2.85l-10-44.72a2.42,2.42,0,0,0-2.37-1.9H256.41v5.58H270Z" style="fill: rgb(255, 255, 255); opacity: 0.3; transform-origin: 272.967px 245.765px;" class="animable"></path></g><rect x="240.35" y="246.55" width="20.6" height="4.01" style="fill: rgb(38, 50, 56); transform-origin: 250.65px 248.555px;" id="el1qdzsjqltuq" class="animable"></rect><rect x="260.95" y="246.55" width="20.6" height="4.01" style="fill: rgb(38, 50, 56); transform-origin: 271.25px 248.555px;" id="el7tx06ee9cg" class="animable"></rect><g id="elbijm192x1ja"><rect x="240.35" y="246.55" width="20.6" height="4.01" style="fill: rgb(255, 255, 255); opacity: 0.7; transform-origin: 250.65px 248.555px;" class="animable"></rect></g><g id="elwvxgamil3jo"><rect x="260.95" y="246.55" width="20.6" height="4.01" style="fill: rgb(255, 255, 255); opacity: 0.3; transform-origin: 271.25px 248.555px;" class="animable"></rect></g><path d="M321.59,250.79a13.42,13.42,0,0,0-10-11v-15a2.76,2.76,0,0,0,2.11-2.67v0a2.76,2.76,0,0,0-2.76-2.75h-5a2.75,2.75,0,0,0-2.75,2.75v0a2.75,2.75,0,0,0,2.11,2.67v15a13.35,13.35,0,0,0-4.57,23.85,5.28,5.28,0,0,0,3,.95h9.41a5.23,5.23,0,0,0,3-.94A13.37,13.37,0,0,0,321.59,250.79Z" style="fill: rgb(64, 123, 255); transform-origin: 308.426px 241.98px;" id="eliciqy3zulk" class="animable"></path><path d="M321.59,250.79a13.42,13.42,0,0,0-10-11v-15a2.76,2.76,0,0,0,2.11-2.67v0a2.76,2.76,0,0,0-2.76-2.75h-5a2.75,2.75,0,0,0-2.75,2.75v0a2.75,2.75,0,0,0,2.11,2.67v15a13.35,13.35,0,0,0-4.57,23.85,5.28,5.28,0,0,0,3,.95h9.41a5.23,5.23,0,0,0,3-.94A13.37,13.37,0,0,0,321.59,250.79Z" style="fill: rgb(64, 123, 255); transform-origin: 308.426px 241.98px;" id="elqrts7y5ake" class="animable"></path><g id="elnizolbsrqom"><path d="M321.59,250.79a13.42,13.42,0,0,0-10-11v-15a2.76,2.76,0,0,0,2.11-2.67v0a2.76,2.76,0,0,0-2.76-2.75h-5a2.75,2.75,0,0,0-2.75,2.75v0a2.75,2.75,0,0,0,2.11,2.67v15a13.35,13.35,0,0,0-4.57,23.85,5.28,5.28,0,0,0,3,.95h9.41a5.23,5.23,0,0,0,3-.94A13.37,13.37,0,0,0,321.59,250.79Z" style="fill: rgb(255, 255, 255); opacity: 0.7; transform-origin: 308.426px 241.98px;" class="animable"></path></g><path d="M304.16,219.94c.5.41,2.19.71,4.21.71s3.71-.3,4.22-.71a2.73,2.73,0,0,0-1.7-.6h-5A2.72,2.72,0,0,0,304.16,219.94Z" style="fill: rgb(64, 123, 255); transform-origin: 308.375px 219.995px;" id="elqc987x8f21m" class="animable"></path><path d="M320.2,251a11.5,11.5,0,0,0-1.59-4.31c-.14.76-4.66,1.37-10.24,1.37s-10.16-.61-10.24-1.38a11.81,11.81,0,0,0-1.7,6.1,12,12,0,0,0,5,9.74,3.81,3.81,0,0,0,2.21.69h9.41a3.7,3.7,0,0,0,2.19-.68A12,12,0,0,0,320.2,251Z" style="fill: rgb(64, 123, 255); transform-origin: 308.377px 254.945px;" id="el8es6f0phoog" class="animable"></path><path d="M318.63,246.65c0,.78-4.59,1.4-10.26,1.4s-10.25-.62-10.25-1.4,4.59-1.41,10.25-1.41S318.63,245.87,318.63,246.65Z" style="fill: rgb(64, 123, 255); transform-origin: 308.375px 246.645px;" id="elabyangf6yy" class="animable"></path><g id="el89p0lt0vn0c"><path d="M318.63,246.65c0,.78-4.59,1.4-10.26,1.4s-10.25-.62-10.25-1.4,4.59-1.41,10.25-1.41S318.63,245.87,318.63,246.65Z" style="opacity: 0.2; transform-origin: 308.375px 246.645px;" class="animable"></path></g><g id="elhk95e90o3b7"><path d="M297.73,253.09s2.37,9,6.13,8.4S301.18,257.94,297.73,253.09Z" style="fill: rgb(255, 255, 255); opacity: 0.5; transform-origin: 301.366px 257.304px;" class="animable"></path></g><path d="M324.85,269.77,320.41,259H322a.91.91,0,0,0,.91-.91v-.35a.91.91,0,0,0-.91-.91H294.82a.91.91,0,0,0-.91.91v.35a.91.91,0,0,0,.91.91h1.59L292,269.79c-.19.44.16.63.61.81s.82.3,1-.14L298.31,259h9.22v11.21c0,.48.39.52.88.52s.87,0,.87-.52V259h9.23l4.73,11.4c.18.44.56.33,1,.14S325,270.21,324.85,269.77Z" style="fill: rgb(38, 50, 56); transform-origin: 308.417px 263.796px;" id="elf75if770nw5" class="animable"></path><g id="elx79jr0ykak8"><path d="M324.79,269.77,320.35,259h1.58a.91.91,0,0,0,.91-.91v-.35a.91.91,0,0,0-.91-.91H294.75a.91.91,0,0,0-.91.91v.35a.91.91,0,0,0,.91.91h1.59l-4.45,10.75c-.18.44.17.63.61.81s.83.3,1-.14L298.24,259h9.22v11.21c0,.48.4.52.88.52s.88,0,.88-.52V259h9.23l4.72,11.4c.19.44.56.33,1,.14S325,270.21,324.79,269.77Z" style="fill: rgb(255, 255, 255); opacity: 0.4; transform-origin: 308.345px 263.78px;" class="animable"></path></g><polygon points="195.23 278.21 195.23 411.56 191.97 411.56 189.07 284.31 185.23 284.31 185.23 278.21 195.23 278.21" style="fill: rgb(64, 123, 255); transform-origin: 190.23px 344.885px;" id="elmkct9oq8n5" class="animable"></polygon><polygon points="192.34 411.55 189.23 411.55 185.23 278.22 189.34 278.22 192.34 411.55" style="fill: rgb(64, 123, 255); transform-origin: 188.785px 344.885px;" id="elatqvi57ciru" class="animable"></polygon><g id="elmc0aj3z7nu"><polygon points="195.23 278.21 195.23 411.56 191.97 411.56 189.07 284.31 185.23 284.31 185.23 278.21 195.23 278.21" style="fill: rgb(255, 255, 255); opacity: 0.3; transform-origin: 190.23px 344.885px;" class="animable"></polygon></g><polygon points="390.8 411.55 387.7 411.55 383.7 278.22 387.8 278.22 390.8 411.55" style="fill: rgb(64, 123, 255); transform-origin: 387.25px 344.885px;" id="el0pae4se23idf" class="animable"></polygon><g id="elpt7y3qtbhhf"><polygon points="390.8 411.55 387.7 411.55 383.7 278.22 387.8 278.22 390.8 411.55" style="fill: rgb(255, 255, 255); opacity: 0.3; transform-origin: 387.25px 344.885px;" class="animable"></polygon></g><polygon points="340.7 278.22 340.7 411.55 343.99 411.55 347.86 284.31 387.54 284.31 390.44 411.55 393.7 411.55 393.7 278.22 340.7 278.22" style="fill: rgb(64, 123, 255); transform-origin: 367.2px 344.885px;" id="el3vbhku0musd" class="animable"></polygon><g id="elkbhfa0iqufe"><polygon points="340.7 278.22 340.7 411.55 343.99 411.55 347.86 284.31 387.54 284.31 390.44 411.55 393.7 411.55 393.7 278.22 340.7 278.22" style="fill: rgb(255, 255, 255); opacity: 0.5; transform-origin: 367.2px 344.885px;" class="animable"></polygon></g><polygon points="340.7 411.55 337.59 411.55 336.59 278.22 340.7 278.22 340.7 411.55" style="fill: rgb(64, 123, 255); transform-origin: 338.645px 344.885px;" id="el88funjf7ktm" class="animable"></polygon><g id="ell3hk7ng2m1"><polygon points="340.7 411.55 337.59 411.55 336.59 278.22 340.7 278.22 340.7 411.55" style="fill: rgb(255, 255, 255); opacity: 0.3; transform-origin: 338.645px 344.885px;" class="animable"></polygon></g><polygon points="185.03 278.21 185.03 284.31 149.19 284.31 145.32 411.56 142.03 411.56 142.03 278.21 185.03 278.21" style="fill: rgb(64, 123, 255); transform-origin: 163.53px 344.885px;" id="elzts6z65kf7l" class="animable"></polygon><g id="elwogm7day2xf"><polygon points="185.03 278.21 185.03 284.31 149.19 284.31 145.32 411.56 142.03 411.56 142.03 278.21 185.03 278.21" style="fill: rgb(255, 255, 255); opacity: 0.3; transform-origin: 163.53px 344.885px;" class="animable"></polygon></g><g id="el6hjqnea5qku"><polygon points="185.03 278.21 185.03 284.31 149.19 284.31 145.32 411.56 142.03 411.56 142.03 278.21 185.03 278.21" style="fill: none; opacity: 0.3; transform-origin: 163.53px 344.885px;" class="animable"></polygon></g><polygon points="142.03 411.55 138.92 411.55 137.92 278.22 142.03 278.22 142.03 411.55" style="fill: rgb(64, 123, 255); transform-origin: 139.975px 344.885px;" id="elsqw8y03b65" class="animable"></polygon><rect x="132.49" y="270.55" width="205.65" height="7.67" style="fill: rgb(64, 123, 255); transform-origin: 235.315px 274.385px;" id="elpksa7gb9qn" class="animable"></rect><g id="elqds12ioocbd"><rect x="132.49" y="270.55" width="205.65" height="7.67" style="fill: rgb(255, 255, 255); opacity: 0.6; transform-origin: 235.315px 274.385px;" class="animable"></rect></g><rect x="333.36" y="270.55" width="65.78" height="7.67" style="fill: rgb(64, 123, 255); transform-origin: 366.25px 274.385px;" id="elu6j0ktuvzah" class="animable"></rect><g id="el07024afj0vo6"><rect x="333.36" y="270.55" width="65.78" height="7.67" style="fill: rgb(255, 255, 255); opacity: 0.8; transform-origin: 366.25px 274.385px;" class="animable"></rect></g><path d="M348.58,232.27h-3.23a1.76,1.76,0,0,0-1.76,1.76v0a1.74,1.74,0,0,0,1,1.55V264a2,2,0,0,0,2,2h.79a2,2,0,0,0,2-2v-28.4a1.74,1.74,0,0,0,.95-1.55v0A1.76,1.76,0,0,0,348.58,232.27Z" style="fill: rgb(64, 123, 255); transform-origin: 346.96px 249.135px;" id="eldwaw1q420nk" class="animable"></path><g id="el639xz9259dw"><path d="M348.58,232.27h-3.23a1.76,1.76,0,0,0-1.76,1.76v0a1.74,1.74,0,0,0,1,1.55V264a2,2,0,0,0,2,2h.79a2,2,0,0,0,2-2v-28.4a1.74,1.74,0,0,0,.95-1.55v0A1.76,1.76,0,0,0,348.58,232.27Z" style="fill: rgb(255, 255, 255); opacity: 0.6; transform-origin: 346.96px 249.135px;" class="animable"></path></g><path d="M344.27,232.65a8.12,8.12,0,0,0,5.39,0,1.77,1.77,0,0,0-1.08-.38h-3.23A1.77,1.77,0,0,0,344.27,232.65Z" style="fill: rgb(64, 123, 255); transform-origin: 346.965px 232.69px;" id="el5x1f30b316b" class="animable"></path><path d="M347,249c-.84,0-1.51-.22-1.53-.48V264a1.14,1.14,0,0,0,1.13,1.13h.79a1.14,1.14,0,0,0,1.13-1.13V248.47C348.47,248.73,347.8,249,347,249Z" style="fill: rgb(64, 123, 255); transform-origin: 346.995px 256.8px;" id="elhwgc44vcw8q" class="animable"></path><path d="M348.49,248.46c0,.27-.68.49-1.52.49s-1.53-.22-1.53-.49.68-.49,1.53-.49S348.49,248.19,348.49,248.46Z" style="fill: rgb(64, 123, 255); transform-origin: 346.965px 248.46px;" id="el8t66awowep5" class="animable"></path><g id="el0991ru0r6lzf"><path d="M348.49,248.46c0,.27-.68.49-1.52.49s-1.53-.22-1.53-.49.68-.49,1.53-.49S348.49,248.19,348.49,248.46Z" style="opacity: 0.3; transform-origin: 346.965px 248.46px;" class="animable"></path></g><g id="elb1bh2694oxc"><g style="opacity: 0.8; transform-origin: 345.87px 249.91px;" class="animable"><path d="M345.42,235.82V264a.45.45,0,0,0,.9,0V235.82a.45.45,0,0,0-.9,0Z" style="fill: rgb(255, 255, 255); transform-origin: 345.87px 249.91px;" id="eln3byysis3di" class="animable"></path></g></g><path d="M361,232.27h-3.23a1.76,1.76,0,0,0-1.76,1.76v0a1.74,1.74,0,0,0,.95,1.55V264a2,2,0,0,0,2,2h.8a2,2,0,0,0,2-2v-28.4a1.74,1.74,0,0,0,.95-1.55v0A1.76,1.76,0,0,0,361,232.27Z" style="fill: rgb(64, 123, 255); transform-origin: 359.36px 249.135px;" id="elrnuw3zklrhe" class="animable"></path><g id="elmn7xs5okeca"><path d="M361,232.27h-3.23a1.76,1.76,0,0,0-1.76,1.76v0a1.74,1.74,0,0,0,.95,1.55V264a2,2,0,0,0,2,2h.8a2,2,0,0,0,2-2v-28.4a1.74,1.74,0,0,0,.95-1.55v0A1.76,1.76,0,0,0,361,232.27Z" style="fill: rgb(255, 255, 255); opacity: 0.6; transform-origin: 359.36px 249.135px;" class="animable"></path></g><path d="M356.73,232.65a5.65,5.65,0,0,0,2.7.46,5.71,5.71,0,0,0,2.7-.46,1.8,1.8,0,0,0-1.09-.38h-3.23A1.77,1.77,0,0,0,356.73,232.65Z" style="fill: rgb(64, 123, 255); transform-origin: 359.43px 232.698px;" id="elwvh4tvujh39" class="animable"></path><path d="M359.43,243.44c-.84,0-1.51-.22-1.53-.48v21a1.14,1.14,0,0,0,1.13,1.13h.8A1.13,1.13,0,0,0,361,264V243C360.93,243.22,360.26,243.44,359.43,243.44Z" style="fill: rgb(64, 123, 255); transform-origin: 359.45px 254.025px;" id="elb4xa8yrlgn5" class="animable"></path><path d="M361,243c0,.27-.69.49-1.53.49s-1.53-.22-1.53-.49.68-.49,1.53-.49S361,242.68,361,243Z" style="fill: rgb(64, 123, 255); transform-origin: 359.47px 243px;" id="ellea3e16qtsg" class="animable"></path><g id="elve6am53xtra"><path d="M361,243c0,.27-.69.49-1.53.49s-1.53-.22-1.53-.49.68-.49,1.53-.49S361,242.68,361,243Z" style="opacity: 0.3; transform-origin: 359.47px 243px;" class="animable"></path></g><g id="elos9c8fbln3"><g style="opacity: 0.8; transform-origin: 358.33px 249.91px;" class="animable"><path d="M357.88,235.82V264a.45.45,0,0,0,.9,0V235.82a.45.45,0,0,0-.9,0Z" style="fill: rgb(255, 255, 255); transform-origin: 358.33px 249.91px;" id="el2gw5u4kw47k" class="animable"></path></g></g><path d="M373.5,232.27h-3.22a1.76,1.76,0,0,0-1.77,1.76v0a1.74,1.74,0,0,0,.95,1.55V264a2,2,0,0,0,2,2h.8a2,2,0,0,0,2-2v-28.4a1.74,1.74,0,0,0,.95-1.55v0A1.76,1.76,0,0,0,373.5,232.27Z" style="fill: rgb(64, 123, 255); transform-origin: 371.86px 249.135px;" id="eljd4ln51jjh" class="animable"></path><g id="elowsqb2b2yt"><path d="M373.5,232.27h-3.22a1.76,1.76,0,0,0-1.77,1.76v0a1.74,1.74,0,0,0,.95,1.55V264a2,2,0,0,0,2,2h.8a2,2,0,0,0,2-2v-28.4a1.74,1.74,0,0,0,.95-1.55v0A1.76,1.76,0,0,0,373.5,232.27Z" style="fill: rgb(255, 255, 255); opacity: 0.6; transform-origin: 371.86px 249.135px;" class="animable"></path></g><path d="M369.19,232.65a5.65,5.65,0,0,0,2.7.46,5.71,5.71,0,0,0,2.7-.46,1.8,1.8,0,0,0-1.09-.38h-3.22A1.78,1.78,0,0,0,369.19,232.65Z" style="fill: rgb(64, 123, 255); transform-origin: 371.89px 232.698px;" id="elchu5tdgma7c" class="animable"></path><path d="M371.89,249c-.84,0-1.51-.22-1.53-.48V264a1.14,1.14,0,0,0,1.13,1.13h.8a1.13,1.13,0,0,0,1.12-1.13V248.47C373.4,248.73,372.72,249,371.89,249Z" style="fill: rgb(64, 123, 255); transform-origin: 371.885px 256.8px;" id="el82qr5f19st" class="animable"></path><path d="M373.42,248.46c0,.27-.69.49-1.53.49s-1.53-.22-1.53-.49.68-.49,1.53-.49S373.42,248.19,373.42,248.46Z" style="fill: rgb(64, 123, 255); transform-origin: 371.89px 248.46px;" id="elxticzdsndf" class="animable"></path><g id="elhyhk4rbr1km"><path d="M373.42,248.46c0,.27-.69.49-1.53.49s-1.53-.22-1.53-.49.68-.49,1.53-.49S373.42,248.19,373.42,248.46Z" style="opacity: 0.3; transform-origin: 371.89px 248.46px;" class="animable"></path></g><g id="el6wl3iimoz13"><g style="opacity: 0.8; transform-origin: 370.79px 249.91px;" class="animable"><path d="M370.34,235.82V264a.45.45,0,0,0,.9,0V235.82a.45.45,0,0,0-.9,0Z" style="fill: rgb(255, 255, 255); transform-origin: 370.79px 249.91px;" id="elqp0fj18dk9b" class="animable"></path></g></g><path d="M381.53,239.84a1,1,0,0,0,1-1v-1a1,1,0,0,0-1-1h-56a1,1,0,0,0-1,1v1a1,1,0,0,0,1,1h1.58v28h-1.58a1,1,0,0,0-1,1v1a1,1,0,0,0,1,1h56a1,1,0,0,0,1-1v-1a1,1,0,0,0-1-1H380v-28Zm-4.13,28H329.61v-28H377.4Z" style="fill: rgb(38, 50, 56); transform-origin: 353.53px 253.84px;" id="el1kkgskz6zsw" class="animable"></path><g id="elvuxacwdyclr"><path d="M381.53,239.84a1,1,0,0,0,1-1v-1a1,1,0,0,0-1-1h-56a1,1,0,0,0-1,1v1a1,1,0,0,0,1,1h1.58v28h-1.58a1,1,0,0,0-1,1v1a1,1,0,0,0,1,1h56a1,1,0,0,0,1-1v-1a1,1,0,0,0-1-1H380v-28Zm-4.13,28H329.61v-28H377.4Z" style="fill: rgb(255, 255, 255); opacity: 0.4; transform-origin: 353.53px 253.84px;" class="animable"></path></g><path d="M204.63,269.55c0,.05,0,.1,0,.15a1.1,1.1,0,0,1-1.1,1.08l-27.74-.34a1.09,1.09,0,0,1-1.06-1,.61.61,0,0,1,0-.14,1.09,1.09,0,0,1,.73-1h0a1.06,1.06,0,0,1,.35-.05l27.74.33a1,1,0,0,1,.94.58A1,1,0,0,1,204.63,269.55Z" style="fill: rgb(64, 123, 255); transform-origin: 189.678px 269.515px;" id="ely2qos8p219o" class="animable"></path><path d="M202.54,270.78l49.31-.34a1.08,1.08,0,0,0,1.08-1.09h0a1.1,1.1,0,0,0-1.09-1.08l-49.31.34a1.1,1.1,0,0,0-1.08,1.09h0A1.1,1.1,0,0,0,202.54,270.78Z" style="fill: rgb(64, 123, 255); transform-origin: 227.19px 269.525px;" id="el5ijdnhzxe6" class="animable"></path><g id="elpr0vc1imfy"><path d="M202.54,270.78l49.31-.34a1.08,1.08,0,0,0,1.08-1.09h0a1.1,1.1,0,0,0-1.09-1.08l-49.31.34a1.1,1.1,0,0,0-1.08,1.09h0A1.1,1.1,0,0,0,202.54,270.78Z" style="opacity: 0.5; transform-origin: 227.19px 269.525px;" class="animable"></path></g><path d="M255.46,237.57l-2.22,27.24a3.85,3.85,0,0,1-2.84,3.35,3.18,3.18,0,0,1-.76.13h-.13l-45.41.31H204a3.11,3.11,0,0,1-3.11-3.43l2.22-27.24a3.84,3.84,0,0,1,3.73-3.47h.69l44.72-.32A3.12,3.12,0,0,1,255.46,237.57Z" style="fill: rgb(64, 123, 255); transform-origin: 228.175px 251.369px;" id="elb7s87442m7a" class="animable"></path><path d="M253.87,234l-45.41.32a3.42,3.42,0,0,0-.89.13,3.84,3.84,0,0,0-2.84,3.34l-2.21,27.25a3.1,3.1,0,0,0,3.17,3.43l44.71-.32h.69a3.83,3.83,0,0,0,3.73-3.47L257,237.44A3.12,3.12,0,0,0,253.87,234Z" style="fill: rgb(64, 123, 255); transform-origin: 229.759px 251.236px;" id="el5wx901jf5aj" class="animable"></path><g id="elj0i5jbi0eu8"><path d="M253.87,234l-45.41.32a3.42,3.42,0,0,0-.89.13,3.84,3.84,0,0,0-2.84,3.34l-2.21,27.25a3.1,3.1,0,0,0,3.17,3.43l44.71-.32h.69a3.83,3.83,0,0,0,3.73-3.47L257,237.44A3.12,3.12,0,0,0,253.87,234Z" style="fill: rgb(255, 255, 255); opacity: 0.2; transform-origin: 229.759px 251.236px;" class="animable"></path></g><path d="M231.29,253.24a2,2,0,0,0,2,2,1.92,1.92,0,0,0,.92-.22,2.53,2.53,0,0,1-.67.54,2.72,2.72,0,1,1,0-4.71,2.86,2.86,0,0,1,.82.73l-.08,0a1.86,1.86,0,0,0-1-.27A2,2,0,0,0,231.29,253.24Z" style="fill: rgb(255, 255, 255); transform-origin: 231.909px 253.205px;" id="elk7vc6cidkk8" class="animable"></path><polygon points="143.95 276.06 143.9 276.08 143.85 276.06 143.9 276.05 143.95 276.06" style="fill: rgb(240, 240, 240); transform-origin: 143.9px 276.065px;" id="elcqy9brrw1g" class="animable"></polygon></g><g id="freepik--speech-bubbles--inject-11" class="animable animator-active" style="transform-origin: 226.255px 121.164px;"><path d="M248.39,97.07A8.21,8.21,0,1,1,252,82.32h0a8.21,8.21,0,0,1-3.57,14.75Zm-2.32-14.83a6.79,6.79,0,1,0,5.06,1.22h0A6.73,6.73,0,0,0,246.07,82.24Z" style="fill: rgb(64, 123, 255); transform-origin: 247.165px 88.9525px;" id="ellt9ziuk25f" class="animable"></path><g id="elowxlylub3br"><rect x="258.59" y="93.09" width="1.41" height="9.48" style="fill: rgb(64, 123, 255); transform-origin: 259.295px 97.83px; transform: rotate(-53.9deg);" class="animable"></rect></g><g id="el2ohrox0lntn"><rect x="254.19" y="92.88" width="1.41" height="3.48" style="fill: rgb(64, 123, 255); transform-origin: 254.895px 94.62px; transform: rotate(-53.9deg);" class="animable"></rect></g><path d="M264.43,126.72l-2.16-.53a33.27,33.27,0,0,1-6.76-2.18l-.28-.14c-2.13-1-4.78-2.31-5.34-6.78a1.21,1.21,0,0,0-1-1.2c-19.79-1-35.38-11.94-34.78-24.49s17.2-22,37-21,35.37,11.94,34.76,24.5c-.38,8-7.49,15.19-18.54,18.75-.31.12-.92.28-1.68.49-2.76.72-7.89,2.08-9.18,4.76-.64,1.32.38,3,1.67,4C258.72,123.29,264.43,126.72,264.43,126.72ZM248.28,71.19c-18.07,0-32.76,8.76-33.31,20.26-.59,12,14.63,22.61,33.91,23.54a2.09,2.09,0,0,1,1.89,2c.51,4,2.82,5.1,4.85,6.08l.29.14a21,21,0,0,0,3,1.17,12.94,12.94,0,0,1-1.38-.83c-1.62-1.17-2.81-3.29-1.95-5.07,1.47-3,6.86-4.48,9.76-5.24a16.07,16.07,0,0,0,1.61-.47c10.72-3.44,17.58-10.31,17.95-18,.58-12.06-14.63-22.62-33.91-23.55C250.08,71.21,249.17,71.19,248.28,71.19Z" style="fill: rgb(64, 123, 255); transform-origin: 249.99px 98.5237px;" id="eljjhw5ix6llf" class="animable"></path><path d="M194.38,168.06c1.28-.93,2.3-2.63,1.67-3.95-1.29-2.68-6.42-4-9.18-4.76-.77-.21-1.37-.37-1.69-.5-11.05-3.55-18.15-10.73-18.54-18.74-.6-12.56,15-23.55,34.76-24.5s36.36,8.49,37,21-15,23.54-34.77,24.49a1.21,1.21,0,0,0-1,1.2c-.57,4.47-3.22,5.75-5.35,6.78l-.28.14a33,33,0,0,1-6.75,2.18L188,172S193.71,168.54,194.38,168.06Zm7.06-51.55c-19.27.93-34.48,11.49-33.9,23.55.36,7.64,7.23,14.51,17.94,17.95a16.48,16.48,0,0,0,1.62.47c2.89.76,8.29,2.19,9.75,5.24.86,1.78-.33,3.9-1.95,5.07a12.8,12.8,0,0,1-1.37.83,21.92,21.92,0,0,0,3-1.17l.28-.14c2-1,4.35-2.1,4.85-6.08a2.09,2.09,0,0,1,1.89-2c19.28-.93,34.5-11.49,33.92-23.55-.55-11.49-15.25-20.25-33.31-20.25C203.26,116.44,202.36,116.46,201.44,116.51Z" style="fill: rgb(64, 123, 255); transform-origin: 202.521px 143.772px;" id="elt6zsja5qqj" class="animable"></path><path d="M208.06,155.61H194.35a.51.51,0,0,1-.5-.39.5.5,0,0,1,.26-.56l7.07-3.7a.48.48,0,0,1,.48,0l6.65,3.69a.51.51,0,0,1-.25,1Z" style="fill: rgb(64, 123, 255); transform-origin: 201.268px 153.28px;" id="elk4hf5nbvkx" class="animable"></path><path d="M201.47,150.29a.51.51,0,0,1-.51-.51V144a.51.51,0,0,1,1,0v5.77A.51.51,0,0,1,201.47,150.29Z" style="fill: rgb(64, 123, 255); transform-origin: 201.46px 146.94px;" id="el9vkrd0v61dh" class="animable"></path><path d="M199.88,152.69a.51.51,0,0,1-.2-1c1.94-.89,4.7-2.73,4.46-3.5,0-.06-.29-.33-1.19-.51a.51.51,0,1,1,.2-1c1.11.22,1.79.64,2,1.2a1.7,1.7,0,0,1-.39,1.52,9.64,9.64,0,0,1-2.77,2.21c-.51.3-1,.56-1.29.72C200,152.69,200,152.69,199.88,152.69Z" style="fill: rgb(64, 123, 255); transform-origin: 202.237px 149.683px;" id="el5yr1vw3hgqn" class="animable"></path><path d="M199.61,147.19l-.12,0a2.22,2.22,0,0,1-1.66-1.72c-.1-.71.2-1.8,2.17-2.95a27.45,27.45,0,0,1,2.94-1.43c4.61-2,12.33-5.49,12.33-11.24,0-2.23-.67-3.82-2-4.71-3.25-2.2-7.38,2.36-7.44,2.38-.26.11-2.62-2.12-2.73-2.38a.51.51,0,0,1,.28-.66c.28-.11,6.76-2.68,10.46-.19,1.62,1.1,2.44,3,2.44,5.56,0,6.41-8.1,10-12.94,12.17a27.15,27.15,0,0,0-2.81,1.36h0c-1.15.67-1.76,1.38-1.69,1.95a1.22,1.22,0,0,0,.91.87.51.51,0,0,1-.13,1Z" style="fill: rgb(64, 123, 255); transform-origin: 207.047px 135.204px;" id="elgy5pavkmm8" class="animable"></path><path d="M203.51,129c-1.5,0-2.61-.48-2.86-1.36a2.06,2.06,0,0,1,.85-2,8.18,8.18,0,0,1,3.16-1.62c2.08-.59,4.06-.46,4.91.32a1.46,1.46,0,0,1,.42.67c.37,1.33-1.35,2.89-4,3.64h0A9.25,9.25,0,0,1,203.51,129Zm2.33-.88Z" style="fill: rgb(64, 123, 255); transform-origin: 205.333px 126.326px;" id="elijrinix5rtr" class="animable"></path><path d="M201.28,140.23a9.82,9.82,0,0,1-9.82-9.8v-.51h19.63v.51A9.81,9.81,0,0,1,201.28,140.23Z" style="fill: rgb(64, 123, 255); transform-origin: 201.275px 135.075px;" id="elvi6bh7grpc" class="animable"></path><path d="M202.46,127.69a5.25,5.25,0,0,1-5.05.27,4.82,4.82,0,0,0-1-.42c-.35-.07-.65-.22-.85.07a1.1,1.1,0,0,1,1.36-.39c-.27-.32-.53-.58-.93-.46.86-.34,1.09-.28,1.78.34,1.63,1.46,3.39.65,3.62.18C201.8,127.48,202.08,127.5,202.46,127.69Z" style="fill: rgb(64, 123, 255); transform-origin: 199.01px 127.517px;" id="elo69g8rvnqjn" class="animable"></path></g><defs>     <filter id="active" height="200%">         <feMorphology in="SourceAlpha" result="DILATED" operator="dilate" radius="2"></feMorphology>                <feFlood flood-color="#32DFEC" flood-opacity="1" result="PINK"></feFlood>        <feComposite in="PINK" in2="DILATED" operator="in" result="OUTLINE"></feComposite>        <feMerge>            <feMergeNode in="OUTLINE"></feMergeNode>            <feMergeNode in="SourceGraphic"></feMergeNode>        </feMerge>    </filter>    <filter id="hover" height="200%">        <feMorphology in="SourceAlpha" result="DILATED" operator="dilate" radius="2"></feMorphology>                <feFlood flood-color="#ff0000" flood-opacity="0.5" result="PINK"></feFlood>        <feComposite in="PINK" in2="DILATED" operator="in" result="OUTLINE"></feComposite>        <feMerge>            <feMergeNode in="OUTLINE"></feMergeNode>            <feMergeNode in="SourceGraphic"></feMergeNode>        </feMerge>            <feColorMatrix type="matrix" values="0   0   0   0   0                0   1   0   0   0                0   0   0   0   0                0   0   0   1   0 "></feColorMatrix>    </filter></defs></svg>